<?xml version="1.0" encoding="UTF-8"?><svg xmlns="http://www.w3.org/2000/svg" xmlns:xlink="http://www.w3.org/1999/xlink" height="165.2" preserveAspectRatio="xMidYMid meet" version="1.0" viewBox="-1.3 167.4 502.4 165.2" width="502.4" zoomAndPan="magnify"><g id="change1_1"><path d="M 23.851562 175.699219 C 27.265625 175.175781 45.097656 175.800781 48.53125 176.574219 C 49.652344 183.378906 51.277344 252.523438 52.125 298.914062 C 40.710938 298.914062 30.875 298.921875 23.183594 298.945312 C 22.710938 252.1875 22.511719 182.546875 23.851562 175.699219 Z M 76.316406 188.035156 C 76.628906 189.320312 76.957031 193.917969 77.285156 200.738281 C 75.851562 200.714844 72.597656 200.789062 64.695312 201.027344 C 59.855469 201.171875 53.96875 201.351562 52.140625 201.316406 C 52.070312 199.195312 52 197.199219 51.929688 195.339844 C 51.808594 192.132812 51.699219 189.4375 51.597656 187.164062 C 62.347656 186.886719 74.222656 187.140625 76.316406 188.035156 Z M 77.980469 170.433594 C 78.875 170.136719 81.097656 169.925781 83.566406 169.824219 L 81.417969 176.257812 C 81.304688 176.589844 81.347656 176.953125 81.535156 177.253906 L 84.226562 181.578125 L 81.488281 186.898438 C 81.296875 187.265625 81.316406 187.703125 81.53125 188.058594 L 84.507812 192.882812 L 82.152344 196.996094 C 81.902344 197.429688 81.953125 197.976562 82.285156 198.355469 L 85.1875 201.695312 L 82.875 205.105469 C 82.613281 205.496094 82.605469 206.003906 82.859375 206.398438 L 85.636719 210.769531 L 83.195312 214.921875 C 82.992188 215.265625 82.980469 215.691406 83.15625 216.046875 L 86.402344 222.523438 L 83.984375 228.96875 C 83.855469 229.316406 83.898438 229.707031 84.097656 230.019531 L 86.390625 233.59375 L 83.007812 238.421875 C 82.710938 238.839844 82.722656 239.402344 83.035156 239.8125 L 86.78125 244.714844 L 83.90625 249.796875 C 83.714844 250.132812 83.699219 250.542969 83.871094 250.890625 L 86.84375 256.988281 L 83.257812 263.597656 C 83.03125 264.015625 83.074219 264.527344 83.371094 264.894531 L 87.273438 269.789062 L 84.101562 274.640625 C 83.875 274.988281 83.847656 275.433594 84.035156 275.808594 L 87.492188 282.742188 L 84.207031 288.992188 C 83.992188 289.402344 84.035156 289.898438 84.320312 290.265625 L 87.527344 294.375 L 84.160156 298.683594 C 84.097656 298.765625 84.050781 298.851562 84.011719 298.941406 C 83.425781 298.941406 82.839844 298.941406 82.261719 298.941406 C 82.269531 298.882812 82.277344 298.824219 82.273438 298.761719 C 82.269531 298.488281 81.785156 271.023438 81.078125 243.6875 C 79.863281 197.03125 79.042969 188.792969 78.429688 186.972656 C 78.023438 179.984375 77.761719 172.28125 77.980469 170.433594 Z M 92.460938 170.128906 C 93.074219 177.773438 95.121094 264.859375 95.882812 298.960938 C 95.277344 298.960938 94.671875 298.960938 94.070312 298.960938 C 94.046875 298.921875 94.03125 298.878906 94.003906 298.839844 L 90.515625 294.375 L 93.363281 290.734375 C 93.640625 290.378906 93.691406 289.890625 93.488281 289.484375 L 90.140625 282.769531 L 93.957031 275.519531 C 94.171875 275.105469 94.125 274.601562 93.835938 274.234375 L 90.179688 269.652344 L 92.941406 265.433594 C 93.167969 265.085938 93.195312 264.644531 93.015625 264.269531 L 89.492188 257.046875 L 93.152344 250.308594 C 93.371094 249.902344 93.332031 249.402344 93.050781 249.03125 L 89.597656 244.519531 L 92.34375 239.675781 C 92.554688 239.296875 92.542969 238.828125 92.308594 238.460938 L 89.222656 233.652344 L 91.960938 229.746094 C 92.210938 229.390625 92.242188 228.929688 92.050781 228.542969 L 88.96875 222.390625 L 91.300781 216.167969 C 91.429688 215.820312 91.390625 215.433594 91.191406 215.121094 L 88.394531 210.722656 L 91.09375 206.128906 C 91.351562 205.691406 91.300781 205.140625 90.96875 204.761719 L 88.152344 201.519531 L 90.054688 198.714844 C 90.316406 198.328125 90.328125 197.828125 90.082031 197.433594 L 87.25 192.839844 L 90.144531 187.789062 C 90.359375 187.414062 90.351562 186.949219 90.121094 186.582031 L 86.933594 181.46875 L 89.210938 177.050781 C 89.371094 176.742188 89.382812 176.375 89.25 176.054688 L 86.601562 169.761719 C 89.136719 169.753906 91.472656 169.867188 92.460938 170.128906 Z M 125.816406 217.960938 C 126.292969 220.941406 126.898438 235.148438 127.46875 252.359375 L 97.179688 253.398438 C 97.035156 247.316406 96.882812 240.992188 96.726562 234.679688 C 96.566406 228.253906 96.421875 222.472656 96.285156 217.246094 C 106.703125 217.257812 122.636719 217.453125 125.816406 217.960938 Z M 150.445312 240.839844 C 150.351562 240.925781 150.257812 241.007812 150.160156 241.09375 C 149.574219 241.601562 148.96875 242.125 148.457031 242.796875 C 146.914062 244.8125 146.675781 247.734375 147.839844 250.234375 C 148.550781 251.765625 149.75 253.117188 151.300781 254.167969 C 149.019531 255.976562 147.6875 259.058594 148.0625 262.09375 C 148.425781 265.050781 150.25 267.792969 152.941406 269.550781 C 151.089844 271.609375 149.96875 274.316406 149.867188 277.058594 C 149.773438 279.8125 150.707031 282.597656 152.414062 284.78125 C 151.785156 285.273438 151.265625 285.953125 150.917969 286.773438 C 150.40625 287.972656 150.320312 289.273438 150.257812 290.320312 C 150.144531 292.109375 150 294.339844 150.84375 296.390625 C 151.265625 297.410156 152.011719 298.394531 152.964844 299.097656 C 145.625 299.074219 138.324219 299.058594 131.128906 299.039062 C 131.121094 298.8125 131.113281 298.476562 131.105469 298.039062 C 131.203125 298.023438 131.300781 297.996094 131.394531 297.953125 C 134.335938 296.59375 136.304688 293.410156 136.1875 290.214844 C 136.101562 287.953125 134.972656 285.773438 133.246094 284.285156 C 135.085938 283.074219 136.257812 280.722656 136.441406 278.410156 C 136.734375 274.722656 135.125 270.9375 132.335938 268.460938 C 134.195312 266.984375 135.023438 264.414062 135.152344 262.3125 C 135.40625 258.210938 133.890625 254.097656 131.0625 251.085938 C 132.382812 249.433594 133.097656 247.3125 133.003906 245.210938 C 132.941406 243.707031 132.457031 242.230469 131.65625 240.949219 C 139.09375 240.707031 146.601562 240.632812 150.445312 240.839844 Z M 153.722656 184.214844 C 156.773438 183.378906 174.023438 183.425781 177.421875 184.273438 C 177.570312 186.046875 177.796875 191.792969 178.070312 199.917969 C 170.019531 200.289062 161.859375 200.382812 153.796875 200.191406 C 153.65625 192.132812 153.601562 185.984375 153.722656 184.214844 Z M 179.339844 175.089844 C 181.542969 174.839844 190.65625 175.214844 193.027344 175.789062 C 193.105469 177.359375 193.246094 181.785156 193.421875 188.078125 C 188.957031 187.613281 184.4375 187.40625 179.945312 187.46875 C 179.824219 185.015625 179.742188 183.945312 179.675781 183.441406 C 179.671875 183.414062 179.675781 183.382812 179.671875 183.355469 C 179.324219 180.167969 179.132812 176.355469 179.339844 175.089844 Z M 203.898438 206.167969 C 209.820312 216.757812 217.777344 230.738281 225.730469 244.523438 C 238.40625 266.5 253.527344 292.324219 258.636719 299.472656 C 254.234375 299.453125 250.253906 299.4375 246.765625 299.421875 C 231.609375 299.359375 215.28125 299.300781 198.511719 299.242188 C 198.382812 292.792969 196.773438 224.03125 195.855469 191.507812 C 197.261719 194.183594 199.6875 198.636719 203.898438 206.167969 Z M 208.867188 180.121094 C 209.746094 181.226562 211.78125 184.382812 214.867188 189.414062 C 213.195312 189.308594 211.515625 189.296875 209.847656 189.398438 C 209.660156 189.410156 209.160156 189.441406 208.753906 189.839844 C 208.308594 190.28125 208.304688 190.832031 208.304688 191.039062 L 208.296875 193.363281 C 206.789062 192.8125 205.179688 192.554688 203.558594 192.617188 C 203.320312 192.625 202.757812 192.644531 202.277344 193.027344 C 201.667969 193.511719 201.59375 194.234375 201.5625 194.546875 C 201.503906 195.121094 201.394531 195.847656 201.277344 196.585938 C 198.863281 192.195312 197.199219 189.078125 196.550781 187.695312 C 201.570312 184.347656 207.027344 180.941406 208.867188 180.121094 Z M 220.3125 198.417969 C 218.84375 198.175781 217.367188 197.960938 215.902344 197.800781 C 215.636719 197.769531 215.011719 197.699219 214.464844 198.132812 C 213.957031 198.527344 213.859375 199.097656 213.816406 199.339844 L 213.347656 202.027344 C 211.933594 201.625 210.480469 201.355469 209.011719 201.226562 C 208.710938 201.199219 208.011719 201.136719 207.429688 201.613281 C 207.003906 201.964844 206.863281 202.421875 206.785156 202.664062 C 206.53125 203.480469 206.277344 204.308594 206.023438 205.140625 C 205 203.3125 204.042969 201.589844 203.152344 199.988281 C 203.230469 199.28125 203.375 198.371094 203.519531 197.484375 C 203.660156 196.613281 203.804688 195.714844 203.886719 194.964844 C 205.597656 194.957031 207.390625 195.386719 208.898438 196.222656 C 209.261719 196.425781 209.707031 196.421875 210.066406 196.210938 C 210.425781 196 210.648438 195.613281 210.648438 195.195312 L 210.65625 191.714844 C 212.570312 191.632812 214.488281 191.699219 216.390625 191.910156 C 217.574219 193.859375 218.882812 196.027344 220.3125 198.417969 Z M 246.042969 200.324219 C 247.035156 201.539062 250.0625 206.269531 254.351562 213.203125 L 237.6875 223.1875 C 234.582031 217.882812 231.722656 213.019531 229.121094 208.621094 C 236.242188 204.636719 244.066406 200.679688 246.042969 200.324219 Z M 243.105469 232.472656 C 241.992188 230.5625 240.878906 228.652344 239.769531 226.753906 C 239.46875 226.234375 239.171875 225.730469 238.875 225.222656 L 255.589844 215.210938 C 257.152344 217.742188 258.855469 220.523438 260.667969 223.496094 Z M 300.441406 289.839844 C 296.699219 291.738281 284.753906 297.796875 282.195312 299.082031 C 281.167969 298.160156 278.753906 294.347656 276.941406 291.015625 C 276.9375 291.007812 276.933594 291.003906 276.933594 291 C 276.929688 290.996094 276.929688 290.988281 276.925781 290.984375 C 276.820312 290.804688 276.292969 289.886719 275.414062 288.355469 C 270.792969 280.316406 257.691406 257.519531 244.296875 234.511719 L 261.894531 225.515625 C 273.285156 244.234375 288.550781 269.78125 300.441406 289.839844 Z M 264.660156 299.5 C 268.265625 297.390625 273.304688 294.453125 275.457031 293.199219 C 277.191406 296.3125 278.496094 298.308594 279.496094 299.566406 C 274.230469 299.542969 269.265625 299.519531 264.660156 299.5 Z M 312.765625 273.335938 L 349.21875 273.558594 C 349.609375 285.8125 349.976562 296.976562 350.074219 299.933594 C 337.359375 299.859375 324.789062 299.792969 312.851562 299.730469 Z M 347.019531 201.109375 C 347.625 204.144531 347.835938 217.371094 347.988281 227.4375 C 345.003906 227.292969 336.683594 227.261719 312.621094 227.714844 L 312.539062 200.511719 C 317.6875 200.628906 337.90625 201.085938 347.019531 201.109375 Z M 371.496094 211.464844 C 371.898438 213.449219 372.535156 223.335938 373.234375 236.621094 L 350.589844 240.761719 C 350.570312 239.96875 350.550781 239.246094 350.535156 238.597656 C 350.464844 235.464844 350.410156 231.785156 350.351562 227.890625 C 350.261719 222.046875 350.171875 216.03125 350.011719 211.019531 C 359.402344 210.613281 369.570312 210.679688 371.496094 211.464844 Z M 394.472656 192.507812 C 395.125 194.636719 396.058594 205.648438 397.070312 220.726562 L 374.71875 221.433594 C 374.203125 213.574219 373.894531 211.308594 373.675781 210.523438 L 372.9375 192.722656 C 382.367188 192.070312 392.480469 191.835938 394.472656 192.507812 Z M 425.820312 246.683594 C 426.363281 247.664062 426.871094 251.757812 427.332031 257.503906 L 401.640625 257.652344 C 401.445312 254.082031 401.242188 250.453125 401.035156 246.820312 C 401.011719 246.449219 400.992188 246.085938 400.96875 245.714844 C 411.917969 245.339844 424.132812 245.59375 425.820312 246.683594 Z M 449.214844 252.570312 C 449.59375 254.886719 450.085938 265.027344 450.523438 276.464844 L 430.808594 276.605469 C 430.769531 275.796875 430.734375 274.984375 430.695312 274.171875 C 430.210938 263.898438 429.726562 257.308594 429.273438 253.046875 C 437.859375 252.464844 447.0625 252.15625 449.214844 252.570312 Z M 472.230469 227.09375 C 472.414062 228.171875 472.679688 231.507812 472.988281 236.335938 C 471.296875 236.269531 468.117188 236.375 461.941406 236.765625 C 457.632812 237.035156 453.332031 237.363281 451.335938 237.519531 C 451.25 233.148438 451.171875 229.035156 451.144531 227.40625 C 454.433594 226.535156 469.644531 226.054688 472.230469 227.09375 Z M 476.246094 301.039062 C 470.128906 300.933594 462.472656 300.832031 453.683594 300.734375 C 453.636719 299.109375 453.3125 287.941406 452.890625 276.765625 C 452.226562 259.164062 451.804688 253.808594 451.480469 252.003906 C 451.566406 251.835938 451.617188 251.648438 451.613281 251.449219 C 451.613281 251.394531 451.589844 250.214844 451.554688 248.398438 L 473.664062 247.8125 C 474.519531 263.394531 475.527344 284.652344 476.246094 301.027344 C 476.246094 301.03125 476.246094 301.035156 476.246094 301.039062 Z M 350.859375 250.355469 L 373.703125 245.808594 C 374.554688 263.011719 375.445312 283.578125 376.109375 300.09375 C 368.246094 300.042969 360.316406 299.996094 352.429688 299.949219 C 352.277344 295.332031 351.382812 268.054688 350.859375 250.355469 Z M 312.734375 262.507812 L 348.859375 262.058594 C 348.953125 265.074219 349.046875 268.15625 349.144531 271.199219 L 312.757812 270.976562 Z M 348.023438 229.75 C 348.046875 231.402344 348.074219 233.003906 348.101562 234.53125 L 312.644531 233.867188 L 312.632812 230.070312 C 325.550781 229.828125 343.851562 229.578125 348.023438 229.75 Z M 312.648438 236.222656 L 348.144531 236.886719 C 348.15625 237.492188 348.167969 238.082031 348.183594 238.652344 C 348.285156 243.035156 348.515625 250.953125 348.785156 259.703125 L 312.726562 260.152344 Z M 373.582031 243.429688 L 350.789062 247.96875 C 350.738281 246.226562 350.691406 244.605469 350.652344 243.140625 L 373.355469 238.992188 C 373.433594 240.4375 373.507812 241.917969 373.582031 243.429688 Z M 401.480469 300.269531 C 393.964844 300.214844 386.257812 300.160156 378.464844 300.109375 C 378.378906 297.984375 377.535156 277.074219 376.558594 256.195312 C 375.835938 240.765625 375.289062 230.5625 374.867188 223.785156 L 397.226562 223.078125 C 398.714844 245.667969 400.34375 276.382812 401.480469 300.269531 Z M 404.546875 265.316406 L 402.058594 265.328125 C 401.964844 263.582031 401.867188 261.804688 401.769531 260.007812 L 404.546875 259.992188 Z M 410.480469 259.957031 C 410.507812 260.886719 410.539062 261.761719 410.566406 262.636719 C 410.59375 263.496094 410.621094 264.363281 410.652344 265.28125 L 406.902344 265.300781 L 406.902344 259.976562 Z M 416.433594 259.921875 C 416.652344 261.6875 416.753906 263.472656 416.738281 265.246094 L 413.007812 265.265625 C 412.980469 264.324219 412.949219 263.441406 412.921875 262.558594 C 412.894531 261.703125 412.863281 260.851562 412.835938 259.945312 Z M 422.648438 259.886719 C 422.769531 261.65625 422.808594 263.441406 422.757812 265.210938 L 419.09375 265.230469 C 419.109375 263.457031 419.011719 261.675781 418.804688 259.910156 Z M 427.859375 265.179688 L 425.113281 265.195312 C 425.160156 263.425781 425.125 261.644531 425.007812 259.875 L 427.507812 259.859375 C 427.628906 261.535156 427.746094 263.316406 427.859375 265.179688 Z M 450.691406 281.003906 L 431.007812 281.296875 C 430.976562 280.523438 430.941406 279.746094 430.910156 278.960938 L 450.609375 278.816406 C 450.636719 279.542969 450.664062 280.273438 450.691406 281.003906 Z M 431.644531 300.515625 C 431.597656 298.773438 431.414062 291.917969 431.097656 283.652344 L 450.773438 283.359375 C 450.988281 289.449219 451.179688 295.535156 451.328125 300.710938 C 445.230469 300.640625 438.625 300.578125 431.644531 300.515625 Z M 402.183594 267.683594 L 405.5 267.664062 C 405.574219 267.679688 405.648438 267.6875 405.726562 267.6875 C 405.808594 267.6875 405.890625 267.679688 405.96875 267.664062 L 427.996094 267.535156 C 428.179688 270.800781 428.351562 274.253906 428.503906 277.757812 C 428.503906 277.773438 428.5 277.785156 428.5 277.796875 C 428.5 277.828125 428.507812 277.855469 428.511719 277.886719 C 428.855469 285.726562 429.121094 293.800781 429.285156 300.492188 C 421.21875 300.421875 412.675781 300.355469 403.839844 300.289062 C 403.695312 297.296875 403.050781 283.964844 402.183594 267.683594 Z M 451.453125 243.515625 C 451.433594 242.347656 451.40625 241.117188 451.382812 239.875 C 452.15625 239.816406 452.9375 239.753906 453.71875 239.695312 Z M 459.898438 245.820312 L 452.714844 246.011719 L 455.875 240.671875 Z M 461.492188 244.035156 L 457.867188 239.394531 C 460.230469 239.226562 462.519531 239.082031 464.589844 238.964844 Z M 470.636719 245.535156 L 463.214844 245.734375 L 466.597656 240.195312 C 467.722656 242.132812 469.078125 243.921875 470.636719 245.535156 Z M 473.488281 244.6875 C 473.351562 244.648438 473.210938 244.628906 473.0625 244.640625 C 471.257812 242.910156 469.730469 240.933594 468.507812 238.765625 C 470.613281 238.675781 472.242188 238.640625 473.136719 238.683594 C 473.246094 240.527344 473.367188 242.539062 473.488281 244.6875 Z M 54.21875 285.269531 C 61.808594 285.519531 67.210938 285.609375 71.074219 285.609375 C 76.003906 285.609375 78.417969 285.460938 79.667969 285.300781 C 79.761719 289.96875 79.84375 294.5 79.917969 298.804688 C 79.917969 298.847656 79.929688 298.890625 79.933594 298.9375 C 70.871094 298.925781 62.328125 298.917969 54.480469 298.914062 C 54.453125 297.414062 54.359375 292.425781 54.21875 285.269531 Z M 77.667969 209.734375 C 78.335938 226.980469 78.972656 251.816406 79.457031 274.898438 C 71.238281 275.046875 56.988281 275.304688 54.015625 275.351562 C 53.792969 264.5 53.5 251.148438 53.171875 237.851562 C 52.914062 227.296875 52.660156 218 52.417969 210.027344 Z M 77.574219 207.378906 L 52.347656 207.671875 C 52.304688 206.296875 52.261719 204.957031 52.21875 203.667969 C 52.382812 203.671875 52.566406 203.671875 52.78125 203.671875 C 54.464844 203.671875 57.820312 203.589844 64.765625 203.382812 C 69.671875 203.234375 75.65625 203.054688 77.394531 203.09375 C 77.453125 204.449219 77.515625 205.882812 77.574219 207.378906 Z M 54.066406 277.707031 C 57.636719 277.648438 76.136719 277.3125 79.507812 277.253906 C 79.546875 279.160156 79.585938 281.054688 79.621094 282.929688 C 78.007812 283.179688 72.550781 283.519531 54.171875 282.910156 C 54.136719 281.265625 54.101562 279.527344 54.066406 277.707031 Z M 97.667969 274.09375 L 128.105469 273.351562 C 128.359375 282.277344 128.585938 291.15625 128.773438 299.03125 C 118.300781 299.007812 108.0625 298.984375 98.238281 298.96875 C 98.214844 297.871094 97.992188 287.953125 97.667969 274.09375 Z M 128.039062 270.996094 L 97.613281 271.738281 C 97.5 266.785156 97.371094 261.390625 97.238281 255.757812 L 127.542969 254.714844 C 127.714844 259.976562 127.882812 265.480469 128.039062 270.996094 Z M 129.707031 248.90625 C 129.621094 246.382812 129.539062 244.046875 129.460938 241.898438 C 130.167969 242.902344 130.597656 244.09375 130.652344 245.3125 C 130.707031 246.566406 130.359375 247.828125 129.707031 248.90625 Z M 130.273438 266.980469 C 130.191406 264.195312 130.105469 261.359375 130.019531 258.523438 C 129.960938 256.695312 129.90625 254.949219 129.851562 253.273438 C 131.910156 255.753906 133 258.964844 132.800781 262.167969 C 132.683594 264.085938 131.855469 266.214844 130.273438 266.980469 Z M 130.714844 282.75 C 130.609375 278.835938 130.488281 274.464844 130.359375 269.882812 C 132.863281 271.855469 134.34375 275.082031 134.09375 278.222656 C 133.925781 280.339844 132.542969 282.574219 130.714844 282.75 Z M 130.785156 285.414062 C 132.542969 286.410156 133.757812 288.3125 133.832031 290.304688 C 133.90625 292.335938 132.785156 294.363281 131.039062 295.464844 C 130.980469 293.015625 130.894531 289.546875 130.785156 285.414062 Z M 152.605469 290.46875 C 152.667969 289.515625 152.730469 288.527344 153.085938 287.695312 C 153.332031 287.113281 153.847656 286.441406 154.554688 286.308594 C 154.558594 286.308594 154.558594 286.308594 154.5625 286.304688 C 154.679688 290.171875 154.789062 293.960938 154.890625 297.519531 C 154.054688 297.125 153.363281 296.316406 153.023438 295.496094 C 152.433594 294.058594 152.480469 292.4375 152.605469 290.46875 Z M 154.09375 271.878906 C 154.226562 275.722656 154.355469 279.675781 154.476562 283.585938 C 152.972656 281.800781 152.140625 279.457031 152.222656 277.144531 C 152.289062 275.265625 152.96875 273.410156 154.09375 271.878906 Z M 153.46875 255.542969 C 153.621094 259.117188 153.777344 263.132812 153.933594 267.371094 C 151.996094 265.984375 150.660156 263.929688 150.398438 261.804688 C 150.085938 259.269531 151.382812 256.707031 153.46875 255.542969 Z M 151.703125 242.871094 C 152.035156 242.582031 152.375 242.28125 152.703125 241.957031 C 152.894531 243.902344 153.113281 247.714844 153.339844 252.65625 C 151.789062 251.789062 150.609375 250.601562 149.976562 249.242188 C 149.1875 247.550781 149.328125 245.535156 150.328125 244.226562 C 150.691406 243.746094 151.183594 243.320312 151.703125 242.871094 Z M 162.046875 210.585938 C 167.789062 210.585938 173.644531 210.355469 178.394531 210.097656 C 179.242188 237.429688 180.328125 278.902344 180.835938 299.125 C 180.839844 299.144531 180.84375 299.164062 180.84375 299.183594 C 173.066406 299.15625 165.246094 299.132812 157.464844 299.109375 C 157.480469 299.007812 157.488281 298.902344 157.476562 298.792969 C 157.453125 298.59375 157.375 298.414062 157.265625 298.261719 C 157.140625 293.691406 156.804688 282.183594 156.40625 270.699219 C 155.558594 246.441406 155.109375 241.335938 154.765625 240.003906 C 154.507812 231.054688 154.21875 220.1875 154.003906 210.398438 C 156.566406 210.527344 159.285156 210.585938 162.046875 210.585938 Z M 178.324219 207.742188 C 171.292969 208.121094 161.796875 208.445312 153.953125 208.039062 C 153.910156 206.148438 153.875 204.3125 153.839844 202.550781 C 156.539062 202.613281 159.246094 202.648438 161.957031 202.648438 C 167.359375 202.648438 172.777344 202.523438 178.148438 202.273438 C 178.203125 204.011719 178.261719 205.835938 178.324219 207.742188 Z M 193.566406 193.34375 C 191.464844 193 189.332031 193.097656 187.261719 193.195312 C 184.75 193.316406 182.371094 193.421875 180.171875 192.777344 C 180.128906 191.667969 180.089844 190.6875 180.050781 189.820312 C 184.527344 189.765625 189.039062 189.972656 193.488281 190.453125 C 193.511719 191.382812 193.539062 192.347656 193.566406 193.34375 Z M 182.683594 279.285156 C 182.410156 268.753906 182.050781 255.21875 181.675781 241.726562 C 181.007812 217.703125 180.566406 203.578125 180.261719 195.234375 C 182.609375 195.765625 185.023438 195.660156 187.375 195.550781 C 189.570312 195.445312 191.648438 195.351562 193.632812 195.75 C 194.25 218.941406 195.152344 256.398438 195.695312 279.460938 C 191.378906 279.042969 187.011719 278.984375 182.683594 279.285156 Z M 183.183594 299.1875 C 183.1875 299.148438 183.191406 299.109375 183.191406 299.066406 C 183.1875 298.957031 183.082031 294.6875 182.90625 287.867188 C 183.507812 287.90625 184.105469 287.933594 184.703125 287.933594 C 186.441406 287.933594 188.160156 287.789062 189.847656 287.648438 C 191.117188 287.542969 192.3125 287.421875 193.507812 287.300781 C 194.285156 287.21875 195.074219 287.140625 195.875 287.066406 C 196.023438 293.417969 196.125 297.816406 196.15625 299.230469 C 191.855469 299.21875 187.523438 299.203125 183.183594 299.1875 Z M 195.820312 284.707031 C 194.953125 284.785156 194.105469 284.871094 193.265625 284.957031 C 192.085938 285.078125 190.910156 285.199219 189.652344 285.304688 C 187.40625 285.488281 185.09375 285.679688 182.84375 285.507812 C 182.8125 284.28125 182.78125 282.992188 182.746094 281.640625 C 187.070312 281.335938 191.4375 281.402344 195.753906 281.832031 C 195.777344 282.820312 195.800781 283.78125 195.820312 284.707031 Z M 252.808594 285.71875 C 252.75 283.695312 252.710938 282.226562 253.203125 280.34375 C 254.894531 280.609375 256.578125 281.023438 258.199219 281.570312 C 258.535156 281.683594 258.90625 281.640625 259.207031 281.449219 C 259.507812 281.261719 259.707031 280.945312 259.746094 280.589844 C 259.929688 279.015625 260.132812 277.417969 260.359375 275.832031 C 262.558594 275.914062 264.734375 276.59375 266.570312 277.789062 C 266.589844 277.800781 266.613281 277.808594 266.636719 277.820312 C 268.828125 281.628906 271.074219 285.53125 273.371094 289.527344 C 273.746094 290.183594 274.058594 290.726562 274.300781 291.148438 C 271.617188 292.710938 264.308594 296.96875 261.050781 298.890625 C 259.875 297.378906 256.992188 292.84375 252.808594 285.945312 C 252.808594 285.929688 252.8125 285.917969 252.8125 285.902344 Z M 248.539062 275.589844 C 248.585938 274.699219 248.632812 273.785156 248.714844 272.859375 C 250.488281 272.78125 252.277344 272.867188 254.035156 273.121094 C 254.625 273.207031 255.179688 272.839844 255.339844 272.269531 L 256.441406 268.277344 C 256.453125 268.28125 256.519531 268.277344 256.574219 268.28125 C 258.453125 268.351562 260.019531 268.601562 261.597656 269.082031 C 262.578125 270.78125 263.570312 272.5 264.574219 274.242188 C 262.878906 273.671875 261.078125 273.40625 259.285156 273.484375 C 258.722656 273.507812 258.257812 273.929688 258.175781 274.488281 C 257.957031 275.953125 257.757812 277.433594 257.574219 278.910156 C 256.214844 278.515625 254.824219 278.207031 253.425781 277.992188 C 253.148438 277.949219 252.574219 277.863281 252.015625 278.148438 C 251.246094 278.539062 251.035156 279.320312 250.949219 279.652344 C 250.710938 280.539062 250.578125 281.34375 250.503906 282.121094 C 249.8125 280.96875 249.09375 279.769531 248.347656 278.523438 C 248.441406 277.515625 248.496094 276.535156 248.539062 275.589844 Z M 221.8125 200.925781 C 230.683594 215.792969 243.675781 238.035156 259.980469 266.277344 C 258.929688 266.085938 257.839844 265.96875 256.660156 265.925781 C 256.28125 265.914062 255.402344 265.882812 254.757812 266.527344 C 254.378906 266.90625 254.25 267.371094 254.171875 267.648438 L 253.339844 270.660156 C 251.65625 270.476562 249.957031 270.429688 248.273438 270.523438 C 248.035156 270.535156 247.539062 270.5625 247.097656 270.902344 C 246.488281 271.371094 246.421875 272.074219 246.394531 272.375 C 246.308594 273.253906 246.261719 274.105469 246.21875 274.9375 C 241.042969 266.214844 234.800781 255.535156 227.859375 243.503906 C 220.304688 230.40625 213.1875 217.902344 207.621094 207.988281 C 207.628906 207.964844 207.644531 207.945312 207.652344 207.921875 C 208.078125 206.46875 208.519531 205.015625 208.964844 203.585938 C 210.644531 203.746094 212.296875 204.113281 213.882812 204.671875 C 214.210938 204.785156 214.570312 204.753906 214.871094 204.578125 C 215.167969 204.402344 215.375 204.105469 215.4375 203.765625 L 216.0625 200.1875 C 217.796875 200.390625 219.546875 200.648438 221.269531 200.960938 C 221.457031 200.992188 221.640625 200.976562 221.8125 200.925781 Z M 90.621094 298.339844 L 87.46875 298.277344 L 89.023438 296.289062 Z M 91.046875 289.871094 L 89.023438 292.460938 L 86.644531 289.414062 L 88.789062 285.339844 Z M 88.820312 271.730469 L 91.511719 275.101562 L 88.84375 280.175781 L 86.445312 275.363281 Z M 90.601562 264.703125 L 88.632812 267.714844 L 85.699219 264.035156 L 88.113281 259.589844 Z M 88.339844 246.746094 L 90.714844 249.855469 L 88.222656 254.445312 L 86.257812 250.414062 Z M 87.761719 235.734375 L 89.941406 239.132812 L 88.042969 242.484375 L 85.429688 239.066406 Z M 87.839844 225.398438 L 89.628906 228.96875 L 87.851562 231.507812 L 86.398438 229.246094 Z M 87.054688 213.003906 L 88.890625 215.890625 L 87.53125 219.515625 L 85.550781 215.5625 Z M 86.785156 203.535156 L 88.636719 205.664062 L 86.976562 208.488281 L 85.261719 205.789062 Z M 85.914062 195.164062 L 87.679688 198.023438 L 86.554688 199.679688 L 84.609375 197.441406 Z M 85.679688 183.90625 L 87.75 187.230469 L 85.839844 190.558594 L 83.886719 187.386719 Z M 85.175781 172.445312 L 86.863281 176.460938 L 85.484375 179.140625 L 83.828125 176.476562 Z M 251.191406 330.171875 C 110.515625 330.457031 9.347656 329.847656 4.929688 328.683594 C 3.578125 328.066406 2.261719 324.277344 2.339844 317.152344 C 2.441406 308.351562 4.488281 301.9375 5.542969 301.460938 C 8.492188 301.195312 71.023438 301.210938 155.757812 301.457031 C 155.882812 301.5 156.011719 301.527344 156.144531 301.527344 C 156.15625 301.527344 156.167969 301.527344 156.179688 301.527344 C 156.300781 301.523438 156.414062 301.496094 156.523438 301.457031 C 184.925781 301.539062 215.800781 301.648438 247.746094 301.78125 C 394.460938 302.394531 487.914062 303.1875 491.648438 303.851562 C 493.378906 304.160156 494.777344 305.535156 495.804688 307.933594 C 498.574219 314.40625 497.597656 325.53125 496.730469 327.964844 C 488.648438 328.957031 384.523438 329.898438 251.191406 330.171875 Z M 498.003906 307.089844 C 496.644531 303.863281 494.644531 301.992188 492.0625 301.53125 C 491.191406 301.378906 486.363281 301.226562 478.589844 301.082031 C 478.597656 301.03125 478.601562 300.976562 478.601562 300.925781 C 477.636719 278.992188 475.289062 227.773438 474.320312 225.871094 C 473.976562 225.199219 473.394531 224.074219 463.304688 224.171875 C 458.792969 224.21875 452.972656 224.566406 450.582031 225.140625 C 450.042969 225.269531 448.78125 225.570312 448.78125 226.71875 C 448.78125 227.820312 449.136719 245.371094 449.234375 250.265625 C 446.925781 249.933594 441.613281 249.835938 429 250.703125 C 428.355469 245.75 427.792969 245.265625 427.410156 244.9375 C 424.859375 242.75 407.605469 243.125 400.835938 243.363281 C 400.347656 235.019531 399.914062 228.007812 399.527344 222.117188 C 399.546875 222.023438 399.5625 221.925781 399.558594 221.824219 C 399.554688 221.699219 399.523438 221.578125 399.484375 221.464844 C 397.511719 191.707031 396.699219 191.136719 396.023438 190.664062 C 393.695312 189.035156 378.1875 189.972656 371.628906 190.453125 C 370.996094 190.5 370.511719 191.042969 370.539062 191.679688 L 371.257812 208.988281 C 369.597656 208.667969 366.605469 208.425781 361.027344 208.425781 C 360.800781 208.425781 360.566406 208.425781 360.332031 208.429688 C 355.988281 208.441406 351.703125 208.59375 349.929688 208.664062 C 349.820312 205.890625 349.691406 203.8125 349.542969 202.339844 C 349.355469 200.496094 349.179688 198.753906 347.761719 198.753906 C 337.863281 198.753906 311.648438 198.132812 311.382812 198.128906 C 311.042969 198.121094 310.757812 198.242188 310.53125 198.464844 C 310.304688 198.6875 310.175781 198.992188 310.179688 199.308594 L 310.492188 299.71875 C 302.066406 299.675781 293.980469 299.636719 286.394531 299.601562 C 291.984375 296.773438 302.0625 291.660156 302.628906 291.371094 C 302.917969 291.226562 303.132812 290.964844 303.226562 290.652344 C 303.316406 290.339844 303.273438 290.003906 303.109375 289.722656 C 302.972656 289.496094 289.535156 266.820312 276.039062 244.363281 C 248.507812 198.558594 247.609375 198.265625 246.890625 198.027344 C 246.226562 197.8125 245.222656 197.484375 235.84375 202.332031 C 232.558594 204.03125 229.375 205.785156 227.925781 206.59375 C 224.78125 201.285156 222.039062 196.691406 219.722656 192.863281 C 219.210938 192.019531 218.734375 191.230469 218.277344 190.480469 C 218.21875 190.28125 218.109375 190.105469 217.960938 189.964844 C 210.316406 177.402344 209.941406 177.460938 208.972656 177.621094 C 207.1875 177.914062 199.433594 182.949219 195.679688 185.445312 C 195.484375 178.910156 195.335938 174.851562 195.265625 174.644531 C 195.039062 173.980469 194.371094 173.75 194.152344 173.671875 C 192.019531 172.9375 179.328125 172.136719 177.855469 173.097656 C 177.347656 173.433594 176.425781 174.035156 177.152344 181.851562 C 175.984375 181.667969 174.207031 181.511719 171.449219 181.390625 C 167.40625 181.210938 162.609375 181.195312 158.933594 181.351562 C 152.601562 181.617188 151.878906 182.21875 151.542969 183.039062 C 150.921875 184.5625 151.769531 217.816406 152.367188 238.652344 C 150.613281 238.429688 147.289062 238.304688 140.761719 238.390625 C 136.148438 238.449219 131.5625 238.597656 129.613281 238.664062 C 129.523438 238.605469 129.433594 238.554688 129.335938 238.519531 C 128.5 216.828125 128.03125 216.476562 127.464844 216.058594 C 127 215.71875 126.359375 215.246094 110.65625 215.007812 C 104.46875 214.914062 98.324219 214.894531 96.226562 214.890625 C 95.058594 169.753906 94.808594 169.253906 94.601562 168.847656 C 94.308594 168.273438 93.867188 167.40625 86.71875 167.40625 C 76.789062 167.40625 76.117188 168.726562 75.894531 169.164062 C 75.296875 170.339844 75.589844 178.382812 75.992188 185.582031 C 71.011719 184.511719 59.074219 184.613281 51.488281 184.808594 C 51.011719 175.183594 50.667969 174.984375 50.078125 174.636719 C 48.09375 173.46875 24.914062 172.617188 22.515625 173.625 C 21.566406 174.023438 21.039062 174.246094 20.703125 194.621094 C 20.53125 205.035156 20.457031 219.484375 20.476562 237.570312 C 20.515625 265.648438 20.78125 293.957031 20.832031 298.953125 C 11.261719 298.992188 5.566406 299.054688 5.089844 299.148438 C 1.976562 299.757812 0.75 307.285156 0.292969 311.71875 C 0.117188 313.441406 -1.277344 328.628906 4.050781 330.867188 C 7.523438 332.328125 110.609375 332.59375 184.878906 332.59375 C 215.417969 332.59375 241.089844 332.546875 252.949219 332.523438 C 315.289062 332.390625 376.460938 332.089844 420.777344 331.695312 C 444.539062 331.480469 463.179688 331.246094 476.1875 331 C 497.875 330.582031 498.035156 330.347656 498.511719 329.644531 C 500.023438 327.421875 501.117188 314.480469 498.003906 307.089844" fill="inherit"/><path d="M 42.007812 287.027344 C 40.828125 287.472656 36.542969 287.476562 32.613281 287.195312 L 32.613281 188.894531 C 36.152344 188.421875 40.019531 188.15625 41.300781 188.410156 C 41.753906 191.734375 42.148438 211.140625 42.296875 237.832031 C 42.433594 262.449219 42.304688 283.875 42.007812 287.027344 Z M 44.25 203.414062 C 43.910156 187.390625 43.609375 187.132812 43.0625 186.660156 C 41.667969 185.46875 35.878906 186.023438 31.265625 186.703125 C 30.6875 186.789062 30.257812 187.285156 30.257812 187.867188 L 30.257812 288.285156 C 30.257812 288.898438 30.726562 289.40625 31.335938 289.460938 C 33.894531 289.679688 35.933594 289.769531 37.558594 289.769531 C 43.335938 289.769531 43.917969 288.632812 44.144531 288.195312 C 44.871094 286.761719 44.714844 248.972656 44.648438 237.425781 C 44.574219 224.207031 44.433594 212.128906 44.25 203.414062" fill="inherit"/><path d="M 140.507812 247.90625 C 141.550781 249.03125 142.53125 250.125 143.003906 250.710938 C 142.757812 251.292969 142.332031 252.359375 141.5625 254.34375 C 140.816406 253.292969 139.910156 251.878906 139.195312 250.699219 Z M 141.171875 257.539062 C 141.386719 257.722656 141.660156 257.820312 141.933594 257.820312 C 142.03125 257.820312 142.128906 257.808594 142.226562 257.78125 C 142.59375 257.6875 142.894531 257.421875 143.035156 257.066406 C 144.011719 254.527344 145.136719 251.660156 145.351562 251.203125 C 145.894531 250.324219 145.289062 249.660156 143.1875 247.339844 C 142.121094 246.164062 141.03125 245.019531 141.03125 245.019531 C 140.765625 244.738281 140.378906 244.609375 139.992188 244.667969 C 139.605469 244.730469 139.277344 244.980469 139.113281 245.332031 L 136.796875 250.265625 C 136.632812 250.617188 136.652344 251.03125 136.851562 251.367188 C 137.347656 252.207031 139.890625 256.449219 141.171875 257.539062" fill="inherit"/><path d="M 143.308594 273.199219 L 141.21875 269.441406 C 141.613281 268.230469 142.050781 266.953125 142.410156 265.980469 C 143.3125 267.351562 144.527344 269.304688 144.972656 270.136719 C 144.6875 270.71875 144.035156 271.914062 143.308594 273.199219 Z M 142.453125 262.546875 C 141.222656 262.246094 140.839844 263.324219 139.824219 266.210938 C 139.308594 267.683594 138.824219 269.191406 138.816406 269.203125 C 138.71875 269.515625 138.75 269.851562 138.910156 270.136719 L 142.261719 276.167969 C 142.46875 276.539062 142.855469 276.769531 143.28125 276.773438 C 143.285156 276.773438 143.289062 276.773438 143.292969 276.773438 C 143.710938 276.773438 144.101562 276.550781 144.3125 276.1875 C 147.425781 270.820312 147.425781 270.460938 147.425781 270.113281 C 147.425781 269.785156 147.425781 269.476562 145.324219 266.15625 C 143.152344 262.71875 142.933594 262.664062 142.453125 262.546875" fill="inherit"/><path d="M 142.871094 290.816406 L 141.574219 288.480469 C 141.820312 287.746094 142.59375 285.960938 143.445312 284.089844 C 144.234375 285.414062 144.886719 286.671875 145.003906 287.207031 C 144.695312 287.820312 143.761719 289.371094 142.871094 290.816406 Z M 143.207031 280.453125 C 142.785156 280.484375 142.410156 280.738281 142.226562 281.125 C 138.910156 288.136719 139.054688 288.5625 139.222656 289.058594 C 139.246094 289.121094 139.273438 289.1875 139.308594 289.25 L 141.78125 293.714844 C 141.984375 294.078125 142.363281 294.308594 142.78125 294.320312 C 142.792969 294.320312 142.800781 294.320312 142.8125 294.320312 C 143.21875 294.320312 143.59375 294.113281 143.8125 293.769531 C 144.3125 292.972656 146.835938 288.941406 147.25 287.964844 C 147.445312 287.507812 147.898438 286.441406 144.273438 280.976562 C 144.039062 280.621094 143.628906 280.421875 143.207031 280.453125" fill="inherit"/></g></svg>