<?xml version="1.0" encoding="UTF-8" standalone="no"?>
<!-- Created with Inkscape (http://www.inkscape.org/) -->

<svg
   xmlns:dc="http://purl.org/dc/elements/1.1/"
   xmlns:cc="http://creativecommons.org/ns#"
   xmlns:rdf="http://www.w3.org/1999/02/22-rdf-syntax-ns#"
   xmlns:svg="http://www.w3.org/2000/svg"
   xmlns="http://www.w3.org/2000/svg"
   xmlns:sodipodi="http://sodipodi.sourceforge.net/DTD/sodipodi-0.dtd"
   xmlns:inkscape="http://www.inkscape.org/namespaces/inkscape"
   width="132.29695mm"
   height="132.29167mm"
   viewBox="0 0 132.29695 132.29167"
   version="1.1"
   id="svg8"
   inkscape:version="0.92.5 (2060ec1f9f, 2020-04-08)"
   sodipodi:docname="logo.svg">
  <defs
     id="defs2" />
  <sodipodi:namedview
     id="base"
     pagecolor="#ffffff"
     bordercolor="#666666"
     borderopacity="1.0"
     inkscape:pageopacity="0.0"
     inkscape:pageshadow="2"
     inkscape:zoom="0.98994949"
     inkscape:cx="95.736497"
     inkscape:cy="261.39701"
     inkscape:document-units="mm"
     inkscape:current-layer="g888"
     showgrid="false"
     inkscape:window-width="1920"
     inkscape:window-height="1025"
     inkscape:window-x="0"
     inkscape:window-y="24"
     inkscape:window-maximized="1" />
  <metadata
     id="metadata5">
    <rdf:RDF>
      <cc:Work
         rdf:about="">
        <dc:format>image/svg+xml</dc:format>
        <dc:type
           rdf:resource="http://purl.org/dc/dcmitype/StillImage" />
        <dc:title></dc:title>
      </cc:Work>
    </rdf:RDF>
  </metadata>
  <g
     inkscape:label="Layer 1"
     inkscape:groupmode="layer"
     id="layer1"
     transform="translate(-39.844585,-22.312)">
    <g
       id="g888">
      <rect
         ry="0"
         style="fill:none;fill-opacity:1;stroke:none;stroke-width:0.46459195;stroke-opacity:1"
         y="22.312"
         x="39.844585"
         height="132.29167"
         width="132.29695"
         id="rect43" />
      <g
         transform="matrix(2.0509004,0,0,2.0509004,-93.221433,-64.51182)"
         id="g868"
         style="fill:#47525e;fill-opacity:1">
        <g
           id="change1_1"
           transform="matrix(0.11633725,0,0,0.11633725,68.050917,36.253093)"
           style="fill:#47525e;fill-opacity:1">
          <path
             id="path10"
             d="m 23.851562,175.69922 c 3.414063,-0.52344 21.246094,0.10156 24.679688,0.875 1.121094,6.80469 2.746094,75.94922 3.59375,122.33984 -11.414062,0 -21.25,0.008 -28.941406,0.0312 -0.472656,-46.75781 -0.671875,-116.39844 0.667968,-123.24609 z m 52.464844,12.33594 c 0.3125,1.28515 0.640625,5.88281 0.96875,12.70312 -1.433594,-0.0234 -4.6875,0.0508 -12.589844,0.28906 -4.839843,0.14453 -10.726562,0.32422 -12.554687,0.28907 -0.07031,-2.1211 -0.140625,-4.11719 -0.210937,-5.97657 -0.121094,-3.20703 -0.230469,-5.90234 -0.332032,-8.17578 10.75,-0.27734 22.625,-0.0234 24.71875,0.8711 z m 1.664063,-17.60157 c 0.894531,-0.29687 3.117187,-0.50781 5.585937,-0.60937 l -2.148437,6.43359 c -0.113281,0.33203 -0.07031,0.69531 0.117187,0.9961 l 2.691406,4.32421 -2.738281,5.32032 c -0.191406,0.36718 -0.171875,0.80468 0.04297,1.16015 l 2.976562,4.82422 -2.355468,4.11328 c -0.25,0.4336 -0.199219,0.98047 0.132812,1.35938 l 2.902344,3.33984 -2.3125,3.41016 c -0.261719,0.39062 -0.269531,0.89844 -0.01563,1.29297 l 2.777344,4.37109 -2.441407,4.15234 c -0.203124,0.34375 -0.214843,0.76954 -0.03906,1.125 l 3.246094,6.47657 -2.417969,6.44531 c -0.128906,0.34766 -0.08594,0.73828 0.113281,1.05078 l 2.292969,3.57422 -3.382813,4.82812 c -0.296874,0.41797 -0.285156,0.98047 0.02734,1.39063 l 3.746094,4.90234 -2.875,5.08203 c -0.191406,0.33594 -0.207031,0.7461 -0.03516,1.09375 l 2.972656,6.09766 -3.585938,6.60938 c -0.226562,0.41796 -0.183593,0.92968 0.113282,1.29687 l 3.902344,4.89453 -3.171876,4.85156 c -0.226562,0.34766 -0.253906,0.79297 -0.06641,1.16797 l 3.457032,6.9336 -3.285157,6.25 c -0.214843,0.41015 -0.171875,0.90625 0.113281,1.27343 l 3.207032,4.10938 -3.367188,4.30859 c -0.0625,0.082 -0.109375,0.16797 -0.148437,0.25782 -0.585938,0 -1.171875,0 -1.75,0 0.0078,-0.0586 0.01563,-0.11719 0.01172,-0.17969 -0.0039,-0.27344 -0.488282,-27.73828 -1.195313,-55.07422 -1.214844,-46.65625 -2.035156,-54.89453 -2.648437,-56.71484 -0.40625,-6.98829 -0.667969,-14.69141 -0.449219,-16.53907 z m 14.480469,-0.30468 c 0.613281,7.64453 2.660156,94.73046 3.421874,128.83203 -0.605468,0 -1.210937,0 -1.8125,0 -0.02344,-0.0391 -0.03906,-0.082 -0.06641,-0.1211 l -3.488281,-4.46484 2.847656,-3.64063 c 0.277344,-0.35546 0.328125,-0.84375 0.125,-1.25 l -3.347656,-6.71484 3.816406,-7.25 c 0.214844,-0.41406 0.167969,-0.91797 -0.121093,-1.28516 l -3.65625,-4.58203 2.761718,-4.21875 c 0.226563,-0.34765 0.253906,-0.78906 0.07422,-1.16406 l -3.523437,-7.22266 3.660156,-6.73828 c 0.21875,-0.40625 0.179687,-0.90625 -0.101563,-1.27734 l -3.453125,-4.51172 2.746094,-4.84375 c 0.210938,-0.37891 0.199219,-0.84766 -0.03516,-1.21484 l -3.085938,-4.8086 2.738282,-3.90625 c 0.25,-0.35547 0.28125,-0.8164 0.08984,-1.20312 l -3.082031,-6.15235 2.332031,-6.22265 c 0.128907,-0.34766 0.08984,-0.73438 -0.109375,-1.04688 l -2.796875,-4.39843 2.699219,-4.59375 c 0.257812,-0.4375 0.207031,-0.98829 -0.125,-1.36719 l -2.816406,-3.24219 1.902344,-2.80469 c 0.261718,-0.38672 0.273437,-0.88672 0.02734,-1.28125 L 87.25,192.83984 l 2.894531,-5.05078 c 0.214844,-0.375 0.207031,-0.83984 -0.02344,-1.20703 l -3.1875,-5.11328 2.277344,-4.41797 c 0.160156,-0.30859 0.171874,-0.67578 0.03906,-0.99609 l -2.648438,-6.29297 c 2.535157,-0.008 4.871094,0.10547 5.859376,0.36719 z m 33.355472,47.83203 c 0.47656,2.98047 1.08203,17.1875 1.65234,34.39843 l -30.289062,1.03907 c -0.144532,-6.08203 -0.296876,-12.40625 -0.453126,-18.71875 -0.160156,-6.42578 -0.304687,-12.20703 -0.441406,-17.4336 10.417974,0.0117 26.351564,0.20703 29.531254,0.71485 z m 24.6289,22.8789 c -0.0937,0.0859 -0.1875,0.16797 -0.28515,0.25391 -0.58594,0.50781 -1.19141,1.03125 -1.70313,1.70312 -1.54297,2.01563 -1.78125,4.9375 -0.61719,7.4375 0.71094,1.53125 1.91016,2.88282 3.46094,3.9336 -2.28125,1.80859 -3.61328,4.89062 -3.23828,7.92578 0.36328,2.95703 2.1875,5.69922 4.87891,7.45703 -1.85157,2.05859 -2.97266,4.76563 -3.07422,7.50781 -0.0937,2.75391 0.83984,5.53907 2.54687,7.72266 -0.6289,0.49219 -1.14844,1.17187 -1.49609,1.99219 -0.51172,1.19922 -0.59766,2.5 -0.66016,3.54687 -0.11328,1.78906 -0.25781,4.01953 0.58594,6.07031 0.42187,1.01954 1.16797,2.00391 2.12109,2.70704 -7.33984,-0.0234 -14.64062,-0.0391 -21.83593,-0.0586 -0.008,-0.22656 -0.0156,-0.5625 -0.0234,-1 0.0977,-0.0156 0.19531,-0.043 0.28906,-0.0859 2.94141,-1.35937 4.91016,-4.54296 4.79297,-7.73828 -0.0859,-2.26172 -1.21484,-4.4414 -2.94141,-5.92968 1.83985,-1.21094 3.01172,-3.5625 3.19532,-5.875 0.29296,-3.6875 -1.31641,-7.47266 -4.10547,-9.94922 1.85937,-1.47657 2.6875,-4.04688 2.8164,-6.14844 0.25391,-4.10156 -1.26172,-8.21484 -4.08984,-11.22656 1.32031,-1.65235 2.03516,-3.77344 1.94141,-5.875 -0.0625,-1.50391 -0.54688,-2.98047 -1.34766,-4.26172 7.4375,-0.24219 14.94531,-0.31641 18.78906,-0.10938 z m 3.27735,-56.625 c 3.05078,-0.83593 20.30078,-0.78906 23.69921,0.0586 0.14844,1.77343 0.375,7.51953 0.64844,15.64453 -8.05078,0.37109 -16.21094,0.46484 -24.27344,0.27344 -0.14062,-8.0586 -0.19531,-14.20704 -0.0742,-15.97657 z m 25.61718,-9.125 c 2.20313,-0.25 11.31641,0.125 13.6875,0.69922 0.0781,1.57031 0.21875,5.9961 0.39453,12.28906 -4.46484,-0.46484 -8.98437,-0.67187 -13.47656,-0.60937 -0.12109,-2.45313 -0.20312,-3.52344 -0.26953,-4.02734 -0.004,-0.0273 0,-0.0586 -0.004,-0.0859 -0.34765,-3.1875 -0.53906,-7 -0.33203,-8.26563 z m 24.5586,31.07813 c 5.92187,10.58984 13.8789,24.57031 21.83203,38.35547 12.67578,21.97656 27.79687,47.80078 32.90625,54.94922 -4.40235,-0.0195 -8.38281,-0.0352 -11.8711,-0.0508 -15.15625,-0.0625 -31.48437,-0.12109 -48.2539,-0.17968 -0.12891,-6.44922 -1.73828,-75.21094 -2.65625,-107.73438 1.40625,2.67578 3.83203,7.12891 8.04297,14.66016 z m 4.96875,-26.04688 c 0.8789,1.10547 2.91406,4.26172 6,9.29297 -1.67188,-0.10547 -3.35157,-0.11719 -5.01953,-0.0156 -0.1875,0.0117 -0.6875,0.043 -1.09375,0.4414 -0.44532,0.44141 -0.44922,0.99219 -0.44922,1.19922 l -0.008,2.32422 c -1.50781,-0.55078 -3.11718,-0.80859 -4.73828,-0.74609 -0.23828,0.008 -0.80078,0.0273 -1.28125,0.41015 -0.60937,0.48438 -0.68359,1.20703 -0.71484,1.51953 -0.0586,0.57422 -0.16797,1.30079 -0.28516,2.03907 -2.41406,-4.39063 -4.07812,-7.50782 -4.72656,-8.89063 5.01953,-3.34765 10.47656,-6.7539 12.31641,-7.57422 z m 11.44531,18.29688 c -1.46875,-0.24219 -2.94531,-0.45703 -4.41016,-0.61719 -0.26562,-0.0312 -0.89062,-0.10156 -1.4375,0.33203 -0.50781,0.39453 -0.60547,0.96485 -0.64843,1.20703 l -0.46875,2.6875 c -1.41407,-0.40234 -2.86719,-0.67187 -4.33594,-0.80078 -0.30078,-0.0273 -1,-0.0898 -1.58203,0.38672 -0.42578,0.35156 -0.56641,0.80859 -0.64453,1.05078 -0.25391,0.81641 -0.50782,1.64453 -0.76172,2.47656 -1.02344,-1.82812 -1.98047,-3.55078 -2.8711,-5.15234 0.0781,-0.70703 0.22266,-1.61719 0.36719,-2.50391 0.14063,-0.87109 0.28516,-1.76953 0.36719,-2.51953 1.71094,-0.008 3.5039,0.42188 5.01172,1.25782 0.36328,0.20312 0.80859,0.19921 1.16797,-0.0117 0.35937,-0.21094 0.58203,-0.59766 0.58203,-1.01563 l 0.008,-3.48047 c 1.91406,-0.082 3.83203,-0.0156 5.73437,0.19532 1.1836,1.94921 2.49219,4.11718 3.92188,6.50781 z m 25.73047,1.90625 c 0.99219,1.21484 4.01953,5.94531 8.30859,12.8789 l -16.66406,9.98438 c -3.10547,-5.30469 -5.96484,-10.16797 -8.56641,-14.56641 7.1211,-3.98437 14.94532,-7.9414 16.92188,-8.29687 z m -2.9375,32.14844 c -1.11328,-1.91016 -2.22656,-3.82032 -3.33594,-5.71875 -0.30078,-0.51954 -0.59766,-1.02344 -0.89453,-1.53125 l 16.71484,-10.01172 c 1.5625,2.53125 3.26563,5.3125 5.07813,8.28515 z m 57.33594,57.36718 c -3.74219,1.89844 -15.6875,7.95703 -18.2461,9.24219 -1.02734,-0.92187 -3.4414,-4.73437 -5.2539,-8.06641 -0.004,-0.008 -0.008,-0.0117 -0.008,-0.0156 -0.004,-0.004 -0.004,-0.0117 -0.008,-0.0156 -0.10547,-0.17968 -0.63281,-1.09765 -1.51172,-2.6289 -4.62109,-8.03906 -17.72265,-30.83594 -31.11719,-53.84375 l 17.59766,-8.9961 c 11.39063,18.71875 26.65625,44.26563 38.54688,64.32422 z M 264.66016,299.5 c 3.60546,-2.10938 8.64453,-5.04688 10.79687,-6.30078 1.73438,3.11328 3.03906,5.10937 4.03906,6.36719 -5.26562,-0.0234 -10.23047,-0.0469 -14.83593,-0.0664 z m 48.10546,-26.16406 36.45313,0.22265 c 0.39062,12.25391 0.75781,23.41797 0.85547,26.375 -12.71485,-0.0742 -25.28516,-0.14062 -37.22266,-0.20312 z m 34.25391,-72.22657 c 0.60547,3.03516 0.81641,16.26172 0.96875,26.32813 -2.98437,-0.14453 -11.30469,-0.17578 -35.36719,0.27734 l -0.082,-27.20312 c 5.14844,0.11719 25.36719,0.57422 34.48047,0.59765 z m 24.47656,10.35547 c 0.40235,1.98438 1.03907,11.8711 1.73828,25.15625 l -22.64453,4.14063 c -0.0195,-0.79297 -0.0391,-1.51563 -0.0547,-2.16406 -0.0703,-3.13282 -0.125,-6.8125 -0.1836,-10.70704 -0.0898,-5.84375 -0.17969,-11.85937 -0.33984,-16.87109 9.39062,-0.40625 19.55859,-0.33984 21.48437,0.44531 z m 22.97657,-18.95703 c 0.65234,2.12891 1.58593,13.14063 2.59765,28.21875 l -22.35156,0.70703 c -0.51563,-7.85937 -0.82422,-10.125 -1.04297,-10.91015 l -0.73828,-17.80078 c 9.42969,-0.65235 19.54297,-0.88672 21.53516,-0.21485 z m 31.34765,54.17578 c 0.54297,0.98047 1.05078,5.07422 1.51172,10.82032 l -25.69141,0.14843 c -0.19531,-3.57031 -0.39843,-7.19922 -0.60546,-10.83203 -0.0234,-0.37109 -0.043,-0.73437 -0.0664,-1.10547 10.94922,-0.375 23.16406,-0.12109 24.85156,0.96875 z m 23.39453,5.88672 c 0.37891,2.31641 0.8711,12.45703 1.3086,23.89453 l -19.71485,0.14063 c -0.0391,-0.8086 -0.0742,-1.6211 -0.11328,-2.4336 -0.48437,-10.27343 -0.96875,-16.86328 -1.42187,-21.125 8.58593,-0.58203 17.78906,-0.89062 19.9414,-0.47656 z m 23.01563,-25.47656 c 0.18359,1.07812 0.44922,4.41406 0.75781,9.24219 -1.69141,-0.0664 -4.87109,0.0391 -11.04687,0.42968 -4.3086,0.26954 -8.60938,0.59766 -10.60547,0.75391 -0.0859,-4.37109 -0.16407,-8.48437 -0.19141,-10.11328 3.28906,-0.87109 18.5,-1.35156 21.08594,-0.3125 z m 4.01562,73.94531 c -6.11718,-0.10547 -13.77343,-0.20703 -22.5625,-0.30469 -0.0469,-1.625 -0.37109,-12.79296 -0.79297,-23.96875 -0.66406,-17.60156 -1.08593,-22.95703 -1.41015,-24.76171 0.0859,-0.16797 0.13672,-0.35547 0.13281,-0.55469 0,-0.0547 -0.0234,-1.23438 -0.0586,-3.05078 l 22.10937,-0.58594 c 0.85547,15.58203 1.86328,36.83984 2.58203,53.21484 0,0.004 0,0.008 0,0.0117 z m -125.38672,-50.68359 22.84375,-4.54688 c 0.85157,17.20313 1.74219,37.76953 2.40625,54.28516 -7.86328,-0.0508 -15.79296,-0.0977 -23.67968,-0.14453 -0.15235,-4.61719 -1.04688,-31.89453 -1.57032,-49.59375 z m -38.125,12.15234 36.125,-0.44922 c 0.0937,3.01563 0.1875,6.09766 0.28516,9.14063 l -36.38672,-0.22266 z M 348.02344,229.75 c 0.0234,1.65234 0.0508,3.25391 0.0781,4.78125 l -35.45703,-0.66406 -0.0117,-3.79688 c 12.91797,-0.24219 31.21875,-0.49219 35.39063,-0.32031 z m -35.375,6.47266 35.49609,0.66406 c 0.0117,0.60547 0.0234,1.19531 0.0391,1.76562 0.10157,4.38282 0.33203,12.30078 0.60157,21.05078 l -36.0586,0.44922 z m 60.93359,7.20703 -22.79297,4.53906 c -0.0508,-1.74219 -0.0976,-3.36328 -0.13672,-4.82813 l 22.70313,-4.14843 c 0.0781,1.44531 0.15234,2.92578 0.22656,4.4375 z m 27.89844,56.83984 c -7.51563,-0.0547 -15.22266,-0.10937 -23.01563,-0.16016 -0.0859,-2.125 -0.92968,-23.03515 -1.90625,-43.91406 -0.72265,-15.42969 -1.26953,-25.63281 -1.6914,-32.41015 l 22.35937,-0.70704 c 1.48828,22.58985 3.11719,53.30469 4.25391,77.19141 z m 3.0664,-34.95312 -2.48828,0.0117 c -0.0937,-1.74609 -0.1914,-3.52343 -0.28906,-5.32031 l 2.77734,-0.0156 z m 5.9336,-5.35938 c 0.0273,0.92969 0.0586,1.80469 0.0859,2.67969 0.0273,0.85937 0.0547,1.72656 0.0859,2.64453 l -3.75,0.0195 v -5.32422 z m 5.95312,-0.0352 c 0.21875,1.76563 0.32032,3.55079 0.30469,5.32422 l -3.73047,0.0195 c -0.0273,-0.9414 -0.0586,-1.82421 -0.0859,-2.70703 -0.0273,-0.85547 -0.0586,-1.70703 -0.0859,-2.61328 z m 6.21485,-0.0351 c 0.12109,1.76953 0.16015,3.55469 0.10937,5.32422 l -3.66406,0.0195 c 0.0156,-1.77344 -0.082,-3.55469 -0.28906,-5.32031 z m 5.21093,5.29297 -2.74609,0.0156 c 0.0469,-1.76953 0.0117,-3.55078 -0.10547,-5.32031 l 2.5,-0.0156 c 0.1211,1.67579 0.23828,3.45704 0.35156,5.32032 z m 22.83204,15.82422 -19.6836,0.29296 c -0.0312,-0.77343 -0.0664,-1.55078 -0.0976,-2.33593 l 19.69921,-0.14453 c 0.0274,0.72656 0.0547,1.45703 0.082,2.1875 z m -19.04688,19.51171 c -0.0469,-1.74218 -0.23047,-8.59765 -0.54687,-16.86328 l 19.67578,-0.29297 c 0.21484,6.08985 0.40625,12.17579 0.55468,17.35157 -6.09765,-0.0703 -12.70312,-0.13282 -19.68359,-0.19532 z M 402.18359,267.6836 405.5,267.6641 c 0.0742,0.0156 0.14844,0.0234 0.22656,0.0234 0.082,0 0.16406,-0.008 0.24219,-0.0234 l 22.02734,-0.1289 c 0.1836,3.26562 0.35547,6.71875 0.50782,10.22265 0,0.0156 -0.004,0.0274 -0.004,0.0391 0,0.0312 0.008,0.0586 0.0117,0.0899 0.34375,7.83984 0.60937,15.91406 0.77344,22.60547 -8.06641,-0.0703 -16.60938,-0.13672 -25.44532,-0.20313 -0.14453,-2.99219 -0.78906,-16.32422 -1.65625,-32.60547 z m 49.26953,-24.16797 c -0.0195,-1.16796 -0.0469,-2.39843 -0.0703,-3.64062 0.77344,-0.0586 1.55469,-0.12109 2.33594,-0.17969 z m 8.44532,2.30469 -7.1836,0.19141 3.16016,-5.33985 z m 1.59375,-1.78515 -3.625,-4.64063 c 2.36328,-0.16797 4.65234,-0.3125 6.72265,-0.42969 z m 9.14453,1.5 -7.42188,0.19921 3.38282,-5.53906 c 1.125,1.9375 2.48046,3.72656 4.03906,5.33985 z m 2.85156,-0.84766 c -0.13672,-0.0391 -0.27734,-0.0586 -0.42578,-0.0469 -1.80469,-1.73046 -3.33203,-3.70703 -4.55469,-5.875 2.10547,-0.0898 3.73438,-0.125 4.62891,-0.082 0.10937,1.84375 0.23047,3.85547 0.35156,6.00391 z M 54.21875,285.26953 c 7.589844,0.25 12.992188,0.33984 16.855469,0.33984 4.929687,0 7.34375,-0.14843 8.59375,-0.30859 0.09375,4.66797 0.175781,9.19922 0.25,13.50391 0,0.043 0.01172,0.0859 0.01563,0.13281 -9.0625,-0.0117 -17.605469,-0.0195 -25.453125,-0.0234 -0.02734,-1.5 -0.121094,-6.48828 -0.261719,-13.64453 z m 23.449219,-75.53516 c 0.667969,17.2461 1.304687,42.08204 1.789062,65.16407 -8.21875,0.14843 -22.46875,0.40625 -25.441406,0.45312 C 53.792969,264.5 53.5,251.14844 53.171875,237.85156 52.914062,227.29687 52.660156,218 52.417969,210.02734 Z m -0.09375,-2.35546 -25.226563,0.29296 c -0.04297,-1.375 -0.08594,-2.71484 -0.128906,-4.0039 0.164062,0.004 0.347656,0.004 0.5625,0.004 1.683594,0 5.039062,-0.082 11.984375,-0.28906 4.90625,-0.14844 10.890625,-0.32812 12.628906,-0.28906 0.05859,1.35547 0.121094,2.78906 0.179688,4.28516 z m -23.507813,70.32812 c 3.570313,-0.0586 22.070313,-0.39453 25.441406,-0.45312 0.03906,1.90625 0.07813,3.80078 0.113282,5.67578 -1.613282,0.25 -7.070313,0.58984 -25.449219,-0.0195 -0.03516,-1.64454 -0.07031,-3.38282 -0.105469,-5.20313 z m 43.601563,-3.61328 30.437501,-0.74219 c 0.2539,8.92578 0.48047,17.80469 0.66797,25.67969 -10.47266,-0.0234 -20.71094,-0.0469 -30.535159,-0.0625 -0.02344,-1.09766 -0.246093,-11.01563 -0.570312,-24.875 z m 30.371091,-3.09766 -30.425779,0.74219 C 97.5,266.78516 97.371094,261.39062 97.238281,255.75781 l 30.304689,-1.04297 c 0.17187,5.26172 0.33984,10.76563 0.49609,16.28125 z m 1.66797,-22.08984 c -0.0859,-2.52344 -0.16797,-4.85938 -0.24609,-7.00781 0.70703,1.0039 1.13672,2.19531 1.1914,3.41406 0.0547,1.25391 -0.29297,2.51562 -0.94531,3.59375 z m 0.56641,18.07422 c -0.082,-2.78516 -0.16797,-5.6211 -0.25391,-8.45703 -0.0586,-1.82813 -0.11328,-3.57422 -0.16797,-5.25 2.0586,2.48047 3.14844,5.6914 2.94922,8.89453 -0.11719,1.91797 -0.94531,4.04687 -2.52734,4.8125 z m 0.4414,15.76953 c -0.10547,-3.91406 -0.22656,-8.28516 -0.35547,-12.86719 2.50391,1.97266 3.98438,5.19922 3.73438,8.33985 -0.16797,2.11718 -1.55078,4.35156 -3.37891,4.52734 z m 0.0703,2.66406 c 1.75781,0.9961 2.97265,2.89844 3.04687,4.89063 0.0742,2.03125 -1.04687,4.05859 -2.79297,5.16015 -0.0586,-2.44922 -0.14453,-5.91797 -0.2539,-10.05078 z m 21.82031,5.05469 c 0.0625,-0.95313 0.125,-1.94141 0.48047,-2.77344 0.24609,-0.58203 0.76172,-1.2539 1.46875,-1.38672 0.004,0 0.004,0 0.008,-0.004 0.11719,3.86718 0.22656,7.65625 0.32812,11.21484 -0.83593,-0.39453 -1.52734,-1.20312 -1.86718,-2.02344 -0.58985,-1.4375 -0.54297,-3.05859 -0.41797,-5.02734 z m 1.48828,-18.58984 c 0.13281,3.84375 0.26172,7.79687 0.38281,11.70703 -1.5039,-1.78516 -2.33594,-4.12891 -2.2539,-6.44141 0.0664,-1.87891 0.74609,-3.73437 1.87109,-5.26562 z m -0.625,-16.33594 c 0.15234,3.57422 0.30859,7.58984 0.46484,11.82812 -1.9375,-1.38672 -3.27343,-3.4414 -3.53515,-5.5664 -0.3125,-2.53516 0.98437,-5.09766 3.07031,-6.26172 z m -1.76563,-12.67188 c 0.33204,-0.28906 0.67188,-0.58984 1,-0.91406 0.19141,1.94531 0.41016,5.75781 0.63672,10.69922 -1.55078,-0.86719 -2.73047,-2.05469 -3.36328,-3.41406 -0.78906,-1.69141 -0.64844,-3.70703 0.35156,-5.01563 0.36329,-0.48047 0.85547,-0.90625 1.375,-1.35547 z m 10.34375,-32.28515 c 5.74219,0 11.59766,-0.23047 16.34766,-0.48828 0.84766,27.33203 1.93359,68.80468 2.44141,89.02734 0.004,0.0195 0.008,0.0391 0.008,0.0586 -7.77734,-0.0273 -15.59766,-0.0508 -23.37891,-0.0742 0.0156,-0.10156 0.0234,-0.20703 0.0117,-0.3164 -0.0234,-0.19922 -0.10156,-0.37891 -0.21094,-0.53125 -0.125,-4.57031 -0.46093,-16.07813 -0.85937,-27.5625 -0.84766,-24.25781 -1.29688,-29.36328 -1.64063,-30.69531 -0.25781,-8.94922 -0.54687,-19.81641 -0.76171,-29.60547 2.5625,0.1289 5.28125,0.1875 8.04296,0.1875 z m 16.27735,-2.84375 c -7.03125,0.3789 -16.52735,0.70312 -24.3711,0.29687 -0.043,-1.89062 -0.0781,-3.72656 -0.11328,-5.48828 2.69922,0.0625 5.40625,0.0977 8.11719,0.0977 5.40234,0 10.82031,-0.125 16.19141,-0.375 0.0547,1.73828 0.11328,3.5625 0.17578,5.46875 z m 15.24219,-14.39844 c -2.10157,-0.34375 -4.23438,-0.24609 -6.30469,-0.14844 -2.51172,0.1211 -4.89063,0.22656 -7.08985,-0.41797 -0.043,-1.10937 -0.082,-2.08984 -0.12109,-2.95703 4.47656,-0.0547 8.98828,0.15235 13.4375,0.63281 0.0234,0.92969 0.0508,1.89454 0.0781,2.89063 z m -10.88282,85.94141 c -0.27343,-10.53125 -0.63281,-24.06641 -1.00781,-37.5586 -0.66797,-24.02344 -1.10937,-38.14844 -1.41406,-46.49219 2.34765,0.53125 4.76172,0.42579 7.11328,0.31641 2.19531,-0.10547 4.27344,-0.19922 6.25781,0.19922 0.61719,23.19141 1.51953,60.64844 2.0625,83.71094 -4.3164,-0.41797 -8.68359,-0.47657 -13.01172,-0.17578 z m 0.5,19.90234 c 0.004,-0.0391 0.008,-0.0781 0.008,-0.12109 -0.004,-0.10938 -0.10938,-4.37891 -0.28516,-11.19922 0.60156,0.0391 1.19922,0.0664 1.79687,0.0664 1.73829,0 3.45704,-0.14453 5.14454,-0.28515 1.26953,-0.10547 2.46484,-0.22657 3.66015,-0.34766 0.77735,-0.082 1.56641,-0.16016 2.36719,-0.23437 0.14844,6.35156 0.25,10.75 0.28125,12.16406 -4.30078,-0.0117 -8.63281,-0.0274 -12.97266,-0.043 z m 12.63672,-14.48047 c -0.86719,0.0781 -1.71484,0.16406 -2.55469,0.25 -1.17968,0.12109 -2.35546,0.24219 -3.61328,0.34766 -2.24609,0.18359 -4.55859,0.375 -6.80859,0.20312 -0.0312,-1.22656 -0.0625,-2.51562 -0.0977,-3.86719 4.32422,-0.30468 8.69141,-0.23828 13.00782,0.19141 0.0234,0.98828 0.0469,1.94922 0.0664,2.875 z m 56.98828,1.01172 c -0.0586,-2.02344 -0.0977,-3.49219 0.39453,-5.375 1.69141,0.26562 3.375,0.67969 4.9961,1.22656 0.33594,0.11328 0.70703,0.0703 1.00781,-0.12109 0.30078,-0.1875 0.5,-0.50391 0.53906,-0.85938 0.1836,-1.57422 0.38672,-3.17187 0.61328,-4.75781 2.19922,0.082 4.375,0.76172 6.21094,1.95703 0.0195,0.0117 0.043,0.0195 0.0664,0.0312 2.1914,3.8086 4.4375,7.71094 6.73437,11.70703 0.375,0.65625 0.6875,1.19922 0.92969,1.6211 -2.68359,1.5625 -9.99219,5.82031 -13.25,7.74218 -1.17578,-1.51171 -4.05859,-6.04687 -8.24219,-12.94531 0,-0.0156 0.004,-0.0273 0.004,-0.043 z m -4.26953,-10.12891 c 0.0469,-0.89062 0.0937,-1.80468 0.17578,-2.73047 1.77344,-0.0781 3.5625,0.008 5.32032,0.26172 0.58984,0.0859 1.14453,-0.28125 1.30468,-0.85156 l 1.10157,-3.99219 c 0.0117,0.004 0.0781,0 0.13281,0.004 1.8789,0.0703 3.44531,0.32031 5.02344,0.80078 0.98046,1.69922 1.97265,3.41797 2.97656,5.16016 -1.69531,-0.57032 -3.4961,-0.83594 -5.28906,-0.75782 -0.5625,0.0234 -1.02735,0.44532 -1.10938,1.00391 -0.21875,1.46484 -0.41797,2.94531 -0.60156,4.42188 -1.35938,-0.39454 -2.75,-0.70313 -4.14844,-0.91797 -0.27734,-0.043 -0.85156,-0.12891 -1.41016,0.15625 -0.76953,0.39062 -0.98046,1.17187 -1.0664,1.5039 -0.23828,0.88672 -0.3711,1.69141 -0.44531,2.46875 -0.69141,-1.15234 -1.41016,-2.35156 -2.15625,-3.59765 0.0937,-1.00782 0.14843,-1.98828 0.1914,-2.9336 z M 221.8125,200.92578 c 8.87109,14.86719 21.86328,37.10938 38.16797,65.35156 -1.05078,-0.1914 -2.14063,-0.30859 -3.32031,-0.35156 -0.37891,-0.0117 -1.25782,-0.043 -1.90235,0.60156 -0.3789,0.37891 -0.50781,0.84375 -0.58594,1.1211 l -0.83203,3.01172 c -1.68359,-0.1836 -3.38281,-0.23047 -5.0664,-0.13672 -0.23828,0.0117 -0.73438,0.0391 -1.17578,0.3789 -0.60938,0.46875 -0.67579,1.17188 -0.70313,1.47266 -0.0859,0.87891 -0.13281,1.73047 -0.17578,2.5625 -5.17578,-8.72266 -11.41797,-19.40234 -18.35938,-31.43359 -7.55468,-13.09766 -14.67187,-25.60157 -20.23828,-35.51563 0.008,-0.0234 0.0234,-0.043 0.0312,-0.0664 0.42578,-1.45312 0.86719,-2.90625 1.3125,-4.33593 1.67969,0.16015 3.33203,0.52734 4.91797,1.08593 0.32813,0.11329 0.6875,0.082 0.98828,-0.0937 0.29688,-0.17578 0.50391,-0.47265 0.56641,-0.8125 l 0.625,-3.57812 c 1.73437,0.20312 3.48437,0.46094 5.20703,0.77344 0.1875,0.0312 0.37109,0.0156 0.54297,-0.0352 z m -131.191406,97.41406 -3.152344,-0.0625 1.554688,-1.98828 z m 0.425781,-8.46875 -2.023437,2.58985 -2.378907,-3.04688 2.144531,-4.07422 z m -2.226563,-18.14062 2.691407,3.37109 -2.667969,5.07422 -2.398438,-4.8125 z m 1.78125,-7.02735 -1.96875,3.01172 -2.933593,-3.67968 2.414062,-4.44532 z m -2.261718,-17.95703 2.375,3.10938 -2.492188,4.58984 -1.964844,-4.03125 z m -0.578125,-11.01172 2.179687,3.39844 -1.898437,3.35156 -2.613281,-3.41796 z m 0.07813,-10.33593 1.789062,3.57031 -1.777344,2.53906 -1.453124,-2.26172 z m -0.785156,-12.39453 1.835937,2.88671 -1.359375,3.625 -1.980469,-3.95312 z m -0.269532,-9.46875 1.851563,2.1289 -1.660157,2.82422 -1.714843,-2.69922 z m -0.871094,-8.3711 1.765626,2.85938 -1.125,1.65625 -1.945313,-2.23828 z m -0.234374,-11.25781 2.070312,3.32422 -1.910156,3.32812 -1.953125,-3.17187 z m -0.503907,-11.46094 1.6875,4.01563 -1.378906,2.67968 -1.65625,-2.66406 z M 251.19141,330.17187 C 110.51563,330.45703 9.347656,329.84766 4.929688,328.68359 3.578125,328.06641 2.261719,324.27734 2.339844,317.15234 c 0.101562,-8.80078 2.148437,-15.21484 3.203125,-15.6914 2.949219,-0.26563 65.480469,-0.25 150.214841,-0.004 0.125,0.043 0.25391,0.0703 0.38672,0.0703 0.0117,0 0.0234,0 0.0352,0 0.12109,-0.004 0.23437,-0.0312 0.34375,-0.0703 28.40234,0.082 59.27734,0.19141 91.22265,0.32422 146.71485,0.61328 240.16797,1.40625 243.90235,2.07031 1.73047,0.3086 3.1289,1.6836 4.15625,4.08203 2.76953,6.47266 1.79297,17.59766 0.92578,20.03125 -8.08203,0.99219 -112.20703,1.9336 -245.53906,2.20703 z m 246.8125,-23.08203 c -1.35938,-3.22656 -3.35938,-5.09765 -5.94141,-5.55859 -0.87109,-0.15234 -5.69922,-0.30469 -13.47266,-0.44922 0.008,-0.0508 0.0117,-0.10547 0.0117,-0.15625 -0.96484,-21.93359 -3.3125,-73.15234 -4.28125,-75.05469 -0.34375,-0.67187 -0.92578,-1.79687 -11.01562,-1.69922 -4.51172,0.0469 -10.33203,0.39454 -12.72266,0.96875 -0.53906,0.12891 -1.80078,0.42969 -1.80078,1.57813 0,1.10156 0.35547,18.65234 0.45312,23.54687 -2.30859,-0.33203 -7.62109,-0.42968 -20.23437,0.4375 -0.64453,-4.95312 -1.20703,-5.4375 -1.58984,-5.76562 -2.55079,-2.1875 -19.80469,-1.8125 -26.57422,-1.57422 -0.48828,-8.34375 -0.92188,-15.35547 -1.3086,-21.24609 0.0195,-0.0937 0.0352,-0.19141 0.0312,-0.29297 -0.004,-0.125 -0.0351,-0.2461 -0.0742,-0.35938 -1.97265,-29.75781 -2.78515,-30.32812 -3.46093,-30.80078 -2.32813,-1.6289 -17.83594,-0.6914 -24.39453,-0.21094 -0.63282,0.0469 -1.11719,0.58985 -1.08985,1.22657 l 0.71875,17.30859 c -1.66015,-0.32031 -4.65234,-0.5625 -10.23047,-0.5625 -0.22656,0 -0.46093,0 -0.69531,0.004 -4.34375,0.0117 -8.62891,0.16406 -10.40234,0.23437 -0.10938,-2.77344 -0.23828,-4.85156 -0.38672,-6.32422 -0.1875,-1.84375 -0.36328,-3.58593 -1.78125,-3.58593 -9.89844,0 -36.11328,-0.6211 -36.37891,-0.625 -0.33984,-0.008 -0.625,0.11328 -0.85156,0.33593 -0.22656,0.22266 -0.35547,0.52735 -0.35156,0.84375 l 0.3125,100.41016 c -8.42578,-0.043 -16.51172,-0.082 -24.09766,-0.11719 5.58984,-2.82812 15.66797,-7.9414 16.23438,-8.23047 0.28906,-0.14453 0.5039,-0.40625 0.59765,-0.71875 0.0899,-0.3125 0.0469,-0.64843 -0.11719,-0.92968 -0.13671,-0.22657 -13.57421,-22.90235 -27.07031,-45.35938 -27.53125,-45.80469 -28.42969,-46.09766 -29.14844,-46.33594 -0.66406,-0.21484 -1.66796,-0.54297 -11.04687,4.30469 -3.28516,1.69922 -6.46875,3.45313 -7.91797,4.26172 -3.14453,-5.30859 -5.88672,-9.90234 -8.20312,-13.73047 -0.51172,-0.84375 -0.98829,-1.63281 -1.44532,-2.38281 -0.0586,-0.19922 -0.16797,-0.375 -0.3164,-0.51563 -7.64453,-12.5625 -8.01953,-12.5039 -8.98828,-12.34375 -1.78516,0.29297 -9.53907,5.32813 -13.29297,7.82422 -0.19532,-6.53515 -0.34375,-10.59375 -0.41407,-10.80078 -0.22656,-0.66406 -0.89453,-0.89453 -1.11328,-0.97266 -2.13281,-0.73437 -14.82422,-1.53515 -16.29687,-0.57421 -0.50781,0.33593 -1.42969,0.9375 -0.70313,8.7539 -1.16797,-0.18359 -2.94531,-0.33984 -5.70312,-0.46094 -4.04297,-0.17968 -8.83985,-0.19531 -12.51563,-0.0391 -6.33203,0.26563 -7.05468,0.86719 -7.39062,1.6875 -0.6211,1.52344 0.22656,34.77735 0.82422,55.61328 -1.75391,-0.22265 -5.07813,-0.34765 -11.60547,-0.26172 -4.61328,0.0586 -9.19922,0.20704 -11.14844,0.27344 -0.0898,-0.0586 -0.17969,-0.10937 -0.27734,-0.14453 -0.83594,-21.69141 -1.30469,-22.04297 -1.8711,-22.46094 -0.46484,-0.33984 -1.10546,-0.8125 -16.80859,-1.05078 -6.1875,-0.0937 -12.332031,-0.11328 -14.429688,-0.11719 -1.167968,-45.13671 -1.417968,-45.63671 -1.625,-46.04296 -0.292968,-0.57422 -0.734374,-1.44141 -7.882812,-1.44141 -9.929688,0 -10.601562,1.32031 -10.824219,1.75781 -0.597656,1.17578 -0.304687,9.21875 0.09766,16.41797 -4.980469,-1.07031 -16.917969,-0.96875 -24.503907,-0.77344 -0.476562,-9.625 -0.820312,-9.82422 -1.410156,-10.17187 -1.984375,-1.16797 -25.164063,-2.01953 -27.5625,-1.01172 -0.949219,0.39844 -1.476563,0.62109 -1.8125,20.99609 -0.171875,10.41407 -0.246094,24.86328 -0.226563,42.94922 0.03906,28.07813 0.304688,56.38672 0.355469,61.38281 -9.570312,0.0391 -15.265625,0.10157 -15.742187,0.19532 -3.113282,0.60937 -4.339844,8.13672 -4.796875,12.57031 -0.175781,1.72266 -1.570313,16.91016 3.757812,19.14844 3.472657,1.46093 106.558596,1.72656 180.828126,1.72656 30.53906,0 56.21093,-0.0469 68.07031,-0.0703 62.33984,-0.13282 123.51172,-0.4336 167.82812,-0.82813 23.76172,-0.21484 42.40235,-0.44922 55.41016,-0.69531 21.6875,-0.41797 21.84766,-0.65234 22.32422,-1.35547 1.51172,-2.22266 2.60547,-15.16406 -0.50781,-22.55469"
             inkscape:connector-curvature="0"
             style="fill:#47525e;fill-opacity:1" />
          <path
             id="path12"
             d="m 42.007812,287.02734 c -1.179687,0.44532 -5.464843,0.44922 -9.394531,0.16797 v -98.30078 c 3.539063,-0.47266 7.40625,-0.73828 8.6875,-0.48437 0.453125,3.32421 0.847657,22.73046 0.996094,49.42187 0.136719,24.61719 0.0078,46.04297 -0.289063,49.19531 z M 44.25,203.41406 c -0.339844,-16.02344 -0.640625,-16.28125 -1.1875,-16.7539 -1.394531,-1.19141 -7.183594,-0.63672 -11.796875,0.043 -0.578125,0.0859 -1.007813,0.58204 -1.007813,1.16407 V 288.2852 c 0,0.61328 0.46875,1.12109 1.078126,1.17578 2.558593,0.21875 4.597656,0.30859 6.222656,0.30859 5.777344,0 6.359375,-1.13672 6.585937,-1.57422 0.726563,-1.43359 0.570313,-39.22265 0.503907,-50.76953 C 44.574219,224.20703 44.433594,212.12891 44.25,203.41406"
             inkscape:connector-curvature="0"
             style="fill:#47525e;fill-opacity:1" />
          <path
             id="path14"
             d="m 140.50781,247.90625 c 1.04297,1.125 2.02344,2.21875 2.4961,2.80469 -0.2461,0.58203 -0.67188,1.64843 -1.44141,3.63281 -0.74609,-1.05078 -1.65234,-2.46484 -2.36719,-3.64453 z m 0.66406,9.63281 c 0.21485,0.1836 0.48829,0.28125 0.76172,0.28125 0.0977,0 0.19532,-0.0117 0.29297,-0.0391 0.36719,-0.0937 0.66797,-0.35938 0.8086,-0.71484 0.97656,-2.53907 2.10156,-5.40625 2.3164,-5.86329 0.54297,-0.8789 -0.0625,-1.54296 -2.16406,-3.86328 -1.06641,-1.17578 -2.15625,-2.32031 -2.15625,-2.32031 -0.26563,-0.28125 -0.65234,-0.41016 -1.03906,-0.35156 -0.38672,0.0625 -0.71485,0.3125 -0.87891,0.66406 l -2.31641,4.93359 c -0.16406,0.35157 -0.14453,0.76563 0.0547,1.10157 0.4961,0.83984 3.03906,5.08203 4.32031,6.17187"
             inkscape:connector-curvature="0"
             style="fill:#47525e;fill-opacity:1" />
          <path
             id="path16"
             d="m 143.30859,273.19922 -2.08984,-3.75781 c 0.39453,-1.21094 0.83203,-2.48829 1.19141,-3.46094 0.90234,1.37109 2.11718,3.32422 2.5625,4.15625 -0.28516,0.58203 -0.9375,1.77734 -1.66407,3.0625 z m -0.85547,-10.65235 c -1.23046,-0.30078 -1.61328,0.77735 -2.6289,3.66407 -0.51563,1.47265 -1,2.98047 -1.00781,2.99218 -0.0977,0.3125 -0.0664,0.64844 0.0937,0.9336 l 3.35156,6.03125 c 0.20703,0.37109 0.59375,0.60156 1.01953,0.60547 0.004,0 0.008,0 0.0117,0 0.41797,0 0.80859,-0.22266 1.01953,-0.58594 3.11328,-5.36719 3.11328,-5.72656 3.11328,-6.07422 0,-0.32812 0,-0.63672 -2.10156,-3.95703 -2.17188,-3.4375 -2.39063,-3.49219 -2.8711,-3.60938"
             inkscape:connector-curvature="0"
             style="fill:#47525e;fill-opacity:1" />
          <path
             id="path18"
             d="m 142.87109,290.81641 -1.29687,-2.33594 c 0.24609,-0.73438 1.01953,-2.51953 1.87109,-4.39063 0.78906,1.32422 1.44141,2.58203 1.5586,3.11719 -0.3086,0.61328 -1.24219,2.16406 -2.13282,3.60938 z m 0.33594,-10.36329 c -0.42187,0.0312 -0.79687,0.28516 -0.98047,0.67188 -3.3164,7.01172 -3.17187,7.4375 -3.0039,7.93359 0.0234,0.0625 0.0508,0.12891 0.0859,0.19141 l 2.47266,4.46484 c 0.20312,0.36328 0.58203,0.59375 1,0.60547 0.0117,0 0.0195,0 0.0312,0 0.40625,0 0.78125,-0.20703 1,-0.55078 0.5,-0.79687 3.02344,-4.82812 3.4375,-5.80469 0.19531,-0.45703 0.64844,-1.52343 -2.97656,-6.98828 -0.23438,-0.35547 -0.64453,-0.55469 -1.06641,-0.52344"
             inkscape:connector-curvature="0"
             style="fill:#47525e;fill-opacity:1" />
        </g>
        <g
           aria-label="Universify"
           transform="matrix(0.48272929,0,0,0.48272929,-34.009504,-80.545809)"
           style="font-style:normal;font-variant:normal;font-weight:normal;font-stretch:normal;font-size:23.60868454px;line-height:1.25;font-family:sans-serif;-inkscape-font-specification:'sans-serif, Normal';font-variant-ligatures:normal;font-variant-caps:normal;font-variant-numeric:normal;font-feature-settings:normal;text-align:start;letter-spacing:0px;word-spacing:0px;writing-mode:lr-tb;text-anchor:start;fill:#47525e;fill-opacity:1;stroke:none"
           id="flowRoot35">
          <path
             d="m 214.18474,330.19686 h 2.34012 v 10.4556 q 0,2.76665 1.00291,3.98858 1.0029,1.21041 3.2508,1.21041 2.23637,0 3.23928,-1.21041 1.00291,-1.22193 1.00291,-3.98858 v -10.4556 h 2.34012 v 10.7438 q 0,3.36608 -1.67152,5.0837 -1.65998,1.71763 -4.91079,1.71763 -3.26233,0 -4.93385,-1.71763 -1.65998,-1.71762 -1.65998,-5.0837 z"
             style="font-style:normal;font-variant:normal;font-weight:normal;font-stretch:normal;font-size:23.60868454px;font-family:sans-serif;-inkscape-font-specification:'sans-serif, Normal';font-variant-ligatures:normal;font-variant-caps:normal;font-variant-numeric:normal;font-feature-settings:normal;text-align:start;writing-mode:lr-tb;text-anchor:start;fill:#47525e;fill-opacity:1"
             id="path909" />
          <path
             d="m 242.36991,339.61497 v 7.79271 h -2.12109 v -7.72354 q 0,-1.8329 -0.71472,-2.74359 -0.71471,-0.91068 -2.14415,-0.91068 -1.71762,0 -2.709,1.09513 -0.99138,1.09512 -0.99138,2.98566 v 7.29702 h -2.13262 v -12.911 h 2.13262 v 2.00582 q 0.76083,-1.1643 1.78679,-1.74068 1.03749,-0.57638 2.38623,-0.57638 2.22484,0 3.36608,1.38332 1.14124,1.37179 1.14124,4.04621 z"
             style="font-style:normal;font-variant:normal;font-weight:normal;font-stretch:normal;font-size:23.60868454px;font-family:sans-serif;-inkscape-font-specification:'sans-serif, Normal';font-variant-ligatures:normal;font-variant-caps:normal;font-variant-numeric:normal;font-feature-settings:normal;text-align:start;writing-mode:lr-tb;text-anchor:start;fill:#47525e;fill-opacity:1"
             id="path911" />
          <path
             d="m 246.60057,334.49668 h 2.12109 v 12.911 h -2.12109 z m 0,-5.02606 h 2.12109 v 2.68595 h -2.12109 z"
             style="font-style:normal;font-variant:normal;font-weight:normal;font-stretch:normal;font-size:23.60868454px;font-family:sans-serif;-inkscape-font-specification:'sans-serif, Normal';font-variant-ligatures:normal;font-variant-caps:normal;font-variant-numeric:normal;font-feature-settings:normal;text-align:start;writing-mode:lr-tb;text-anchor:start;fill:#47525e;fill-opacity:1"
             id="path913" />
          <path
             d="m 251.63816,334.49668 h 2.2479 l 4.03469,10.83602 4.03468,-10.83602 h 2.2479 l -4.84162,12.911 h -2.88192 z"
             style="font-style:normal;font-variant:normal;font-weight:normal;font-stretch:normal;font-size:23.60868454px;font-family:sans-serif;-inkscape-font-specification:'sans-serif, Normal';font-variant-ligatures:normal;font-variant-caps:normal;font-variant-numeric:normal;font-feature-settings:normal;text-align:start;writing-mode:lr-tb;text-anchor:start;fill:#47525e;fill-opacity:1"
             id="path915" />
          <path
             d="m 278.17488,340.42191 v 1.03749 h -9.75241 q 0.13833,2.19026 1.31415,3.34303 1.18735,1.14124 3.29692,1.14124 1.22193,0 2.36317,-0.29972 1.15277,-0.29972 2.28248,-0.89916 v 2.00582 q -1.14124,0.48416 -2.34012,0.73777 -1.19888,0.25361 -2.43234,0.25361 -3.08941,0 -4.89926,-1.79832 -1.79832,-1.79832 -1.79832,-4.86468 0,-3.17011 1.7061,-5.02607 1.71762,-1.86748 4.6226,-1.86748 2.60525,0 4.11538,1.68304 1.52165,1.67151 1.52165,4.55343 z m -2.12109,-0.62249 q -0.0231,-1.74068 -0.97985,-2.77817 -0.94527,-1.0375 -2.51304,-1.0375 -1.77526,0 -2.84733,1.00291 -1.06055,1.00291 -1.22194,2.82428 z"
             style="font-style:normal;font-variant:normal;font-weight:normal;font-stretch:normal;font-size:23.60868454px;font-family:sans-serif;-inkscape-font-specification:'sans-serif, Normal';font-variant-ligatures:normal;font-variant-caps:normal;font-variant-numeric:normal;font-feature-settings:normal;text-align:start;writing-mode:lr-tb;text-anchor:start;fill:#47525e;fill-opacity:1"
             id="path917" />
          <path
             d="m 289.1377,336.47945 q -0.35736,-0.2075 -0.78388,-0.29972 -0.415,-0.10375 -0.92221,-0.10375 -1.79832,0 -2.76665,1.17582 -0.95679,1.16429 -0.95679,3.35455 v 6.80133 h -2.13263 v -12.911 h 2.13263 v 2.00582 q 0.6686,-1.17582 1.74067,-1.74068 1.07208,-0.57638 2.60526,-0.57638 0.21903,0 0.48416,0.0346 0.26514,0.0231 0.58791,0.0807 z"
             style="font-style:normal;font-variant:normal;font-weight:normal;font-stretch:normal;font-size:23.60868454px;font-family:sans-serif;-inkscape-font-specification:'sans-serif, Normal';font-variant-ligatures:normal;font-variant-caps:normal;font-variant-numeric:normal;font-feature-settings:normal;text-align:start;writing-mode:lr-tb;text-anchor:start;fill:#47525e;fill-opacity:1"
             id="path919" />
          <path
             d="m 299.59331,334.8771 v 2.00581 q -0.89916,-0.4611 -1.86749,-0.69166 -0.96832,-0.23055 -2.00581,-0.23055 -1.57929,0 -2.3747,0.48416 -0.78389,0.48416 -0.78389,1.45249 0,0.73777 0.56486,1.16429 0.56486,0.415 2.27095,0.79541 l 0.72625,0.16139 q 2.25942,0.48416 3.20469,1.3718 0.9568,0.8761 0.9568,2.45539 0,1.79832 -1.42943,2.84734 -1.41791,1.04902 -3.90789,1.04902 -1.03749,0 -2.1672,-0.2075 -1.11819,-0.19597 -2.36317,-0.59944 v -2.19026 q 1.17582,0.61097 2.31706,0.92221 1.14124,0.29972 2.25942,0.29972 1.4986,0 2.30554,-0.50721 0.80694,-0.51875 0.80694,-1.45249 0,-0.86458 -0.58792,-1.32568 -0.57638,-0.46111 -2.54761,-0.88764 l -0.73777,-0.17291 q -1.97124,-0.415 -2.84734,-1.26805 -0.8761,-0.86457 -0.8761,-2.36317 0,-1.82137 1.2911,-2.81275 1.2911,-0.99138 3.6658,-0.99138 1.17582,0 2.21331,0.17291 1.03749,0.17292 1.9136,0.51875 z"
             style="font-style:normal;font-variant:normal;font-weight:normal;font-stretch:normal;font-size:23.60868454px;font-family:sans-serif;-inkscape-font-specification:'sans-serif, Normal';font-variant-ligatures:normal;font-variant-caps:normal;font-variant-numeric:normal;font-feature-settings:normal;text-align:start;writing-mode:lr-tb;text-anchor:start;fill:#47525e;fill-opacity:1"
             id="path921" />
          <path
             d="m 303.66258,334.49668 h 2.12109 v 12.911 h -2.12109 z m 0,-5.02606 h 2.12109 v 2.68595 h -2.12109 z"
             style="font-style:normal;font-variant:normal;font-weight:normal;font-stretch:normal;font-size:23.60868454px;font-family:sans-serif;-inkscape-font-specification:'sans-serif, Normal';font-variant-ligatures:normal;font-variant-caps:normal;font-variant-numeric:normal;font-feature-settings:normal;text-align:start;writing-mode:lr-tb;text-anchor:start;fill:#47525e;fill-opacity:1"
             id="path923" />
          <path
             d="m 316.75802,329.47062 v 1.76373 h -2.02887 q -1.14124,0 -1.59082,0.46111 -0.43805,0.46111 -0.43805,1.65998 v 1.14124 h 3.49289 v 1.64846 h -3.49289 v 11.26254 h -2.13262 v -11.26254 h -2.02887 v -1.64846 h 2.02887 v -0.89915 q 0,-2.15568 1.00291,-3.13553 1.0029,-0.99138 3.18164,-0.99138 z"
             style="font-style:normal;font-variant:normal;font-weight:normal;font-stretch:normal;font-size:23.60868454px;font-family:sans-serif;-inkscape-font-specification:'sans-serif, Normal';font-variant-ligatures:normal;font-variant-caps:normal;font-variant-numeric:normal;font-feature-settings:normal;text-align:start;writing-mode:lr-tb;text-anchor:start;fill:#47525e;fill-opacity:1"
             id="path925" />
          <path
             d="m 323.49018,348.60656 q -0.89916,2.30554 -1.75221,3.00873 -0.85305,0.70318 -2.28248,0.70318 h -1.69457 v -1.77526 h 1.24499 q 0.87611,0 1.36027,-0.41499 0.48416,-0.415 1.07207,-1.95971 l 0.38042,-0.96832 -5.22204,-12.70351 h 2.2479 l 4.03468,10.09825 4.03469,-10.09825 h 2.2479 z"
             style="font-style:normal;font-variant:normal;font-weight:normal;font-stretch:normal;font-size:23.60868454px;font-family:sans-serif;-inkscape-font-specification:'sans-serif, Normal';font-variant-ligatures:normal;font-variant-caps:normal;font-variant-numeric:normal;font-feature-settings:normal;text-align:start;writing-mode:lr-tb;text-anchor:start;fill:#47525e;fill-opacity:1"
             id="path927" />
        </g>
        <g
           aria-label="WEB PAGE"
           style="font-style:normal;font-variant:normal;font-weight:normal;font-stretch:normal;font-size:4.77922106px;line-height:1.25;font-family:'Noto Sans';-inkscape-font-specification:'Noto Sans, Normal';font-variant-ligatures:normal;font-variant-caps:normal;font-variant-numeric:normal;font-feature-settings:normal;text-align:start;letter-spacing:0px;word-spacing:0px;writing-mode:lr-tb;text-anchor:start;fill:#47525e;fill-opacity:1;stroke:none;stroke-width:0.27572429"
           id="text872">
          <path
             d="m 90.033234,89.984334 -0.908052,3.412364 h -0.434909 l -0.664312,-2.236675 q -0.03823,-0.138598 -0.07647,-0.277195 -0.03823,-0.138598 -0.06213,-0.243741 -0.0239,-0.109922 -0.03346,-0.152935 -0.0048,0.06213 -0.05257,0.267637 -0.04301,0.200727 -0.109922,0.420571 l -0.645195,2.222338 h -0.434909 l -0.903273,-3.412364 h 0.449247 l 0.530493,2.083741 q 0.05735,0.219844 0.09558,0.42535 0.04301,0.205507 0.06691,0.387117 0.0239,-0.186389 0.07169,-0.406234 0.04779,-0.219844 0.109922,-0.43013 l 0.602182,-2.059844 h 0.444467 l 0.626078,2.074182 q 0.06691,0.219844 0.114702,0.439688 0.04779,0.215065 0.07169,0.382338 0.0239,-0.176831 0.06691,-0.382338 0.04301,-0.210285 0.100364,-0.434909 l 0.525714,-2.078961 z"
             style="font-style:normal;font-variant:normal;font-weight:normal;font-stretch:normal;font-size:4.77922106px;font-family:'Noto Sans';-inkscape-font-specification:'Noto Sans, Normal';font-variant-ligatures:normal;font-variant-caps:normal;font-variant-numeric:normal;font-feature-settings:normal;text-align:start;writing-mode:lr-tb;text-anchor:start;stroke-width:0.27572429;fill:#47525e;fill-opacity:1"
             id="path930" />
          <path
             d="m 92.46585,93.396698 h -1.90691 v -3.412364 h 1.90691 v 0.377559 h -1.47678 v 1.065766 h 1.390754 v 0.372779 H 90.98907 v 1.218702 h 1.47678 z"
             style="font-style:normal;font-variant:normal;font-weight:normal;font-stretch:normal;font-size:4.77922106px;font-family:'Noto Sans';-inkscape-font-specification:'Noto Sans, Normal';font-variant-ligatures:normal;font-variant-caps:normal;font-variant-numeric:normal;font-feature-settings:normal;text-align:start;writing-mode:lr-tb;text-anchor:start;stroke-width:0.27572429;fill:#47525e;fill-opacity:1"
             id="path932" />
          <path
             d="m 93.216186,89.984334 h 0.974961 q 0.640416,0 0.965403,0.191169 0.329766,0.18639 0.329766,0.654753 0,0.301091 -0.167273,0.501819 -0.167272,0.195948 -0.482701,0.253298 v 0.0239 q 0.215065,0.03346 0.387117,0.12426 0.176831,0.0908 0.277195,0.258078 0.100363,0.167273 0.100363,0.434909 0,0.463585 -0.320207,0.716883 -0.315429,0.253299 -0.865039,0.253299 h -1.199585 z m 0.43013,1.452883 h 0.630857 q 0.439688,0 0.602182,-0.138597 0.162494,-0.143377 0.162494,-0.420571 0,-0.281975 -0.200728,-0.401455 -0.195948,-0.12426 -0.630857,-0.12426 h -0.563948 z m 0,0.358442 v 1.237818 h 0.688208 q 0.454026,0 0.630857,-0.176831 0.176831,-0.176831 0.176831,-0.463584 0,-0.267637 -0.186389,-0.43013 -0.181611,-0.167273 -0.654754,-0.167273 z"
             style="font-style:normal;font-variant:normal;font-weight:normal;font-stretch:normal;font-size:4.77922106px;font-family:'Noto Sans';-inkscape-font-specification:'Noto Sans, Normal';font-variant-ligatures:normal;font-variant-caps:normal;font-variant-numeric:normal;font-feature-settings:normal;text-align:start;writing-mode:lr-tb;text-anchor:start;stroke-width:0.27572429;fill:#47525e;fill-opacity:1"
             id="path934" />
          <path
             d="m 98.46854,89.984334 q 0.669091,0 0.974961,0.262857 0.30587,0.262857 0.30587,0.74078 0,0.281974 -0.129039,0.530493 -0.12426,0.24374 -0.425351,0.396675 -0.296311,0.152936 -0.807688,0.152936 h -0.391896 v 1.328623 h -0.43013 v -3.412364 z m -0.03823,0.368 h -0.434909 v 1.347741 h 0.344104 q 0.48748,0 0.726442,-0.157715 0.238961,-0.157714 0.238961,-0.535273 0,-0.329766 -0.210286,-0.492259 -0.210286,-0.162494 -0.664312,-0.162494 z"
             style="font-style:normal;font-variant:normal;font-weight:normal;font-stretch:normal;font-size:4.77922106px;font-family:'Noto Sans';-inkscape-font-specification:'Noto Sans, Normal';font-variant-ligatures:normal;font-variant-caps:normal;font-variant-numeric:normal;font-feature-settings:normal;text-align:start;writing-mode:lr-tb;text-anchor:start;stroke-width:0.27572429;fill:#47525e;fill-opacity:1"
             id="path936" />
          <path
             d="m 102.35882,93.396698 -0.41101,-1.056208 h -1.35252 l -0.40624,1.056208 h -0.434907 l 1.333407,-3.426702 h 0.38711 l 1.32863,3.426702 z m -0.54005,-1.438546 -0.38234,-1.032311 q -0.0143,-0.03823 -0.0478,-0.138598 -0.0335,-0.100363 -0.0669,-0.205506 -0.0287,-0.109922 -0.0478,-0.167273 -0.0335,0.148156 -0.0765,0.291533 -0.043,0.138597 -0.0717,0.219844 l -0.38712,1.032311 z"
             style="font-style:normal;font-variant:normal;font-weight:normal;font-stretch:normal;font-size:4.77922106px;font-family:'Noto Sans';-inkscape-font-specification:'Noto Sans, Normal';font-variant-ligatures:normal;font-variant-caps:normal;font-variant-numeric:normal;font-feature-settings:normal;text-align:start;writing-mode:lr-tb;text-anchor:start;stroke-width:0.27572429;fill:#47525e;fill-opacity:1"
             id="path938" />
          <path
             d="m 104.65762,91.594932 h 1.18047 v 1.672727 q -0.2772,0.09081 -0.55917,0.133818 -0.28197,0.04301 -0.64042,0.04301 -0.53049,0 -0.89371,-0.210286 -0.36322,-0.215064 -0.55439,-0.606961 -0.18639,-0.396675 -0.18639,-0.936727 0,-0.535273 0.21029,-0.927169 0.21028,-0.391896 0.60218,-0.606961 0.39667,-0.219844 0.95584,-0.219844 0.28676,0 0.54005,0.05257 0.25808,0.05257 0.47793,0.148156 l -0.1625,0.372779 q -0.18161,-0.08125 -0.41101,-0.138597 -0.22462,-0.05735 -0.46836,-0.05735 -0.61174,0 -0.95585,0.368 -0.33932,0.368 -0.33932,1.008416 0,0.406234 0.12904,0.721662 0.13382,0.31065 0.41579,0.487481 0.28197,0.172052 0.74078,0.172052 0.22462,0 0.38234,-0.0239 0.15771,-0.0239 0.28675,-0.05735 v -1.013195 h -0.75034 z"
             style="font-style:normal;font-variant:normal;font-weight:normal;font-stretch:normal;font-size:4.77922106px;font-family:'Noto Sans';-inkscape-font-specification:'Noto Sans, Normal';font-variant-ligatures:normal;font-variant-caps:normal;font-variant-numeric:normal;font-feature-settings:normal;text-align:start;writing-mode:lr-tb;text-anchor:start;stroke-width:0.27572429;fill:#47525e;fill-opacity:1"
             id="path940" />
          <path
             d="m 108.56224,93.396698 h -1.90691 v -3.412364 h 1.90691 v 0.377559 h -1.47678 v 1.065766 h 1.39075 v 0.372779 h -1.39075 v 1.218702 h 1.47678 z"
             style="font-style:normal;font-variant:normal;font-weight:normal;font-stretch:normal;font-size:4.77922106px;font-family:'Noto Sans';-inkscape-font-specification:'Noto Sans, Normal';font-variant-ligatures:normal;font-variant-caps:normal;font-variant-numeric:normal;font-feature-settings:normal;text-align:start;writing-mode:lr-tb;text-anchor:start;stroke-width:0.27572429;fill:#47525e;fill-opacity:1"
             id="path942" />
        </g>
      </g>
    </g>
  </g>
</svg>
